<?xml version="1.0" encoding="UTF-8" standalone="no"?>
<svg width="95px" height="86px" viewBox="0 0 95 86" version="1.1" xmlns="http://www.w3.org/2000/svg" xmlns:xlink="http://www.w3.org/1999/xlink" xmlns:sketch="http://www.bohemiancoding.com/sketch/ns">
    <!-- Generator: Sketch 3.5.2 (25235) - http://www.bohemiancoding.com/sketch -->
    <title>r1</title>
    <desc>Created with Sketch.</desc>
    <defs></defs>
    <g id="Web" stroke="none" stroke-width="1" fill="none" fill-rule="evenodd" sketch:type="MSPage">
        <g id="r1" sketch:type="MSArtboardGroup">
            <g id="noun_101813_cc" sketch:type="MSLayerGroup" transform="translate(2.000000, 10.000000)">
                <g id="Group" sketch:type="MSShapeGroup">
                    <g id="Shape">
                        <path d="M86.928,20.073 L86.255,13.033 L83.111,13.334 L81.771,6.39 L78.671,6.988 L76.676,0.201 L2.762,21.939 L8.097,40.082 C8.031,40.081 7.967,40.073 7.901,40.073 C3.59,40.073 0.084,43.58 0.084,47.89 C0.084,51.074 1.999,53.814 4.734,55.033 C4.642,55.467 4.591,55.916 4.591,56.377 C4.591,59.932 7.483,62.82 11.036,62.82 C13.62,62.82 15.848,61.289 16.874,59.089 L90.083,59.089 L90.083,20.073 L86.928,20.073 L86.928,20.073 Z M89.096,44.334 L89.096,44.713 L89.096,47.942 L89.096,51.46 L89.096,51.956 L89.096,58.1 L24.829,58.1 L19.732,58.1 L19.637,58.1 L18.087,58.1 L17.24,58.1 C17.242,58.093 17.244,58.084 17.246,58.078 C17.269,57.995 17.291,57.912 17.31,57.828 C17.311,57.823 17.313,57.819 17.314,57.813 C17.334,57.725 17.352,57.639 17.369,57.549 C17.386,57.456 17.399,57.361 17.412,57.268 C17.453,56.977 17.481,56.68 17.481,56.377 C17.481,54.293 16.483,52.441 14.944,51.264 C15.436,50.243 15.719,49.102 15.719,47.893 C15.719,46.063 15.084,44.385 14.03,43.052 L14.03,31.026 L14.03,28.68 L14.03,26.546 L14.03,23.873 L14.03,21.062 L35.747,21.062 L36.312,21.062 L36.915,21.062 L41.232,21.062 L42.08,21.062 L43.1,21.062 L50.576,21.062 L51.65,21.062 L51.806,21.062 L52.456,21.062 L52.626,21.062 L53.095,21.062 L74.691,21.062 L81.374,21.062 L81.779,21.062 L82.296,21.062 L82.813,21.062 L83.596,21.062 L84.1,21.062 L84.604,21.062 L86.03,21.062 L86.526,21.062 L87.024,21.062 L89.096,21.062 L89.096,42.748 L89.096,44.334 L89.096,44.334 Z M15.763,59.089 C14.82,60.727 13.056,61.832 11.036,61.832 C8.028,61.832 5.58,59.385 5.58,56.377 C5.58,56.037 5.615,55.706 5.675,55.382 C5.705,55.22 5.743,55.061 5.788,54.903 C5.833,54.744 5.886,54.587 5.945,54.432 C5.995,54.3 6.051,54.17 6.112,54.043 C6.185,53.889 6.264,53.739 6.351,53.595 C6.441,53.444 6.537,53.299 6.641,53.158 C7.635,51.804 9.232,50.921 11.036,50.921 C11.121,50.921 11.204,50.93 11.288,50.934 C11.467,50.944 11.644,50.959 11.818,50.985 C11.85,50.99 11.883,50.995 11.915,51 C12.039,51.021 12.162,51.044 12.283,51.071 C12.311,51.078 12.339,51.087 12.366,51.092 C12.39,51.098 12.415,51.106 12.44,51.112 C12.46,51.118 12.481,51.123 12.501,51.129 C12.599,51.156 12.696,51.187 12.793,51.219 C12.855,51.24 12.916,51.263 12.978,51.286 C12.99,51.291 13.003,51.295 13.015,51.3 C13.024,51.304 13.032,51.308 13.041,51.31 C13.115,51.338 13.188,51.371 13.26,51.404 C13.353,51.445 13.444,51.488 13.534,51.535 C13.534,51.536 13.535,51.536 13.535,51.536 C13.569,51.554 13.604,51.568 13.638,51.587 C13.773,51.66 13.902,51.741 14.03,51.825 C14.04,51.832 14.052,51.838 14.063,51.845 C14.2,51.938 14.332,52.035 14.459,52.138 C15.697,53.139 16.492,54.669 16.492,56.381 C16.492,56.794 16.442,57.195 16.354,57.582 C16.34,57.643 16.324,57.697 16.309,57.757 C16.294,57.815 16.281,57.873 16.264,57.93 C16.246,57.991 16.227,58.046 16.208,58.104 C16.203,58.119 16.198,58.131 16.193,58.147 C16.176,58.196 16.157,58.246 16.139,58.293 C16.12,58.344 16.104,58.395 16.084,58.443 C16.063,58.496 16.039,58.547 16.016,58.597 C15.996,58.642 15.973,58.687 15.952,58.73 C15.934,58.769 15.917,58.806 15.898,58.842 C15.878,58.882 15.861,58.923 15.84,58.962 C15.816,59.004 15.789,59.046 15.763,59.089 L15.763,59.089 Z M7.901,41.062 C8.067,41.062 8.23,41.076 8.392,41.086 C8.572,41.099 8.749,41.12 8.926,41.146 C9.111,41.174 9.292,41.208 9.472,41.25 C9.674,41.299 9.871,41.354 10.066,41.418 C10.251,41.48 10.433,41.547 10.609,41.624 C10.799,41.706 10.985,41.795 11.165,41.894 C11.33,41.984 11.49,42.083 11.647,42.187 C11.832,42.308 12.009,42.439 12.181,42.578 C12.369,42.73 12.552,42.89 12.723,43.062 C12.834,43.17 12.937,43.291 13.04,43.41 C13.216,43.609 13.383,43.818 13.535,44.039 C13.722,44.31 13.883,44.601 14.03,44.898 C14.474,45.802 14.731,46.816 14.731,47.892 C14.731,48.898 14.506,49.853 14.112,50.714 C14.085,50.699 14.057,50.689 14.03,50.674 C13.934,50.623 13.835,50.577 13.736,50.532 C13.849,50.284 13.949,50.031 14.03,49.768 C14.213,49.172 14.312,48.542 14.312,47.889 C14.312,47.235 14.213,46.606 14.03,46.01 C13.904,45.6 13.738,45.204 13.535,44.832 C13.389,44.564 13.221,44.314 13.04,44.073 C12.959,43.964 12.877,43.855 12.79,43.752 C12.619,43.55 12.433,43.361 12.239,43.182 C12.067,43.024 11.887,42.876 11.7,42.738 C11.561,42.634 11.419,42.54 11.272,42.448 C11.09,42.335 10.902,42.231 10.708,42.136 C10.529,42.049 10.346,41.97 10.159,41.9 C9.979,41.833 9.797,41.771 9.61,41.72 C9.428,41.667 9.244,41.624 9.057,41.59 C8.879,41.558 8.701,41.528 8.518,41.511 C8.315,41.491 8.11,41.482 7.902,41.482 C4.368,41.482 1.493,44.357 1.493,47.892 C1.493,50.454 3.008,52.663 5.187,53.689 C5.128,53.816 5.075,53.945 5.025,54.076 C2.695,52.988 1.074,50.628 1.074,47.892 C1.073,44.125 4.136,41.062 7.901,41.062 L7.901,41.062 Z M76.007,1.43 L77.697,7.177 L72.595,8.161 C71.702,7.491 70.523,7.225 69.368,7.565 C68.454,7.833 67.733,8.432 67.276,9.188 L15.923,19.099 L76.007,1.43 L76.007,1.43 Z M80.986,7.548 L82.123,13.428 L80.609,13.574 L80.107,13.622 L79.605,13.67 L76.953,13.923 C76.129,13.17 74.976,12.794 73.796,13.022 C73.661,13.048 73.538,13.098 73.41,13.138 C72.648,13.374 72.014,13.833 71.562,14.439 L69.573,14.628 L47.17,16.77 L45.762,16.905 L40.634,17.395 L39.245,17.528 L19.499,19.416 L66.844,10.278 L73.407,9.012 L77.976,8.13 L78.463,8.036 L78.951,7.942 L80.986,7.548 L80.986,7.548 Z M85.364,14.112 L85.933,20.072 L84.412,20.072 L83.907,20.072 L83.404,20.072 L82.52,20.072 L82.003,20.072 L81.486,20.072 L80.74,20.072 C79.991,19.245 78.882,18.76 77.683,18.876 C77.546,18.889 77.417,18.927 77.287,18.955 C76.508,19.117 75.831,19.513 75.325,20.072 L73.323,20.072 L52.238,20.072 L51.532,20.072 L50.857,20.072 L50.831,20.072 L49.409,20.072 L44.252,20.072 L42.859,20.072 L37.705,20.072 L37.031,20.072 L36.425,20.072 L23.019,20.072 L37.719,18.667 L38.563,18.586 L39.579,18.488 L47.055,17.774 L48.09,17.675 L49.033,17.585 L71.023,15.482 L77.676,14.846 L79.89,14.635 L80.39,14.587 L80.892,14.539 L82.31,14.403 L82.804,14.356 L83.298,14.309 L85.364,14.112 L85.364,14.112 Z M12.763,50.174 C12.643,50.141 12.524,50.108 12.402,50.081 C12.347,50.068 12.291,50.059 12.235,50.048 C12.174,50.036 12.112,50.029 12.051,50.02 C11.94,50.003 11.83,49.981 11.717,49.969 C11.651,49.962 11.583,49.961 11.517,49.956 C11.357,49.943 11.199,49.932 11.037,49.932 C11.023,49.932 11.009,49.934 10.995,49.934 C8.771,49.95 6.813,51.094 5.665,52.826 C3.79,51.972 2.481,50.085 2.481,47.893 C2.481,44.903 4.913,42.471 7.901,42.471 C8.216,42.471 8.524,42.503 8.824,42.555 C9.012,42.587 9.196,42.629 9.377,42.68 C9.572,42.735 9.764,42.799 9.95,42.875 C10.099,42.936 10.244,43.005 10.387,43.078 C10.583,43.18 10.774,43.291 10.955,43.416 C11.166,43.561 11.363,43.723 11.551,43.895 C11.649,43.985 11.745,44.079 11.837,44.174 C12.042,44.391 12.233,44.621 12.4,44.869 C12.657,45.251 12.861,45.668 13.015,46.107 C13.023,46.13 13.033,46.152 13.04,46.176 C13.221,46.715 13.322,47.289 13.322,47.89 C13.322,48.156 13.296,48.413 13.259,48.668 C13.213,48.989 13.14,49.304 13.04,49.603 C12.994,49.742 12.947,49.875 12.891,50.008 C12.865,50.068 12.833,50.124 12.806,50.185 C12.792,50.182 12.777,50.18 12.763,50.174 L12.763,50.174 Z M13.041,24.203 L13.041,30.69 L13.041,42.016 C12.895,41.887 12.745,41.766 12.589,41.651 L11.364,28.84 L11.161,26.714 L10.639,21.256 L13.04,21.027 L13.041,24.203 L13.041,24.203 L13.041,24.203 Z M9.651,21.316 L11.531,40.971 C11.335,40.869 11.135,40.772 10.932,40.684 L7.282,21.773 L9.651,21.316 L9.651,21.316 Z M6.304,21.928 L9.856,40.33 C9.627,40.269 9.395,40.223 9.158,40.184 L3.99,22.609 L6.304,21.928 L6.304,21.928 Z" fill="#000000"></path>
                        <path d="M22.972,32.399 C24.994,32.399 26.635,30.759 26.635,28.736 C26.635,26.715 24.995,25.075 22.972,25.075 C22.797,25.075 22.63,25.103 22.462,25.127 C21.807,25.219 21.213,25.481 20.717,25.871 C19.865,26.541 19.308,27.569 19.308,28.736 C19.308,29.372 19.485,29.961 19.769,30.482 C20.022,30.943 20.365,31.344 20.784,31.658 C21.396,32.116 22.148,32.399 22.972,32.399 Z" fill="#000000"></path>
                        <path d="M77.387,29.254 C77.407,29.38 77.427,29.505 77.457,29.627 C77.467,29.665 77.48,29.7 77.491,29.737 C77.525,29.859 77.556,29.983 77.603,30.098 C77.665,30.255 77.749,30.401 77.832,30.546 C78.216,31.215 78.794,31.754 79.502,32.071 C79.85,32.227 80.227,32.318 80.621,32.359 C80.745,32.372 80.868,32.397 80.996,32.397 C81.232,32.397 81.461,32.37 81.685,32.327 C82.947,32.087 83.97,31.198 84.414,30.02 C84.533,29.7 84.603,29.36 84.631,29.005 C84.639,28.914 84.658,28.826 84.658,28.734 C84.658,27.902 84.37,27.145 83.902,26.53 C83.693,26.256 83.45,26.012 83.173,25.806 C82.564,25.351 81.814,25.073 80.993,25.073 C80.856,25.073 80.725,25.099 80.593,25.114 C79.994,25.18 79.435,25.373 78.957,25.693 C78.827,25.78 78.713,25.886 78.597,25.988 C78.529,26.047 78.453,26.099 78.39,26.164 C78.23,26.326 78.084,26.502 77.955,26.692 C77.561,27.275 77.332,27.978 77.332,28.734 C77.332,28.743 77.335,28.751 77.335,28.76 C77.339,28.93 77.364,29.092 77.387,29.254 L77.387,29.254 Z" fill="#000000"></path>
                        <path d="M66.689,47.396 L66.193,47.396 L60.757,47.396 C61.138,46.726 61.465,46.009 61.743,45.259 C61.815,45.07 61.884,44.878 61.947,44.685 C62.001,44.521 62.049,44.351 62.096,44.185 C62.102,44.163 62.11,44.14 62.117,44.12 C62.149,44.003 62.188,43.891 62.221,43.771 C62.231,43.73 62.245,43.691 62.256,43.65 C62.287,43.523 62.309,43.39 62.337,43.263 C62.348,43.217 62.356,43.169 62.365,43.123 C62.392,43.001 62.419,42.879 62.441,42.756 C62.64,41.735 62.756,40.674 62.756,39.578 C62.756,39.415 62.74,39.256 62.735,39.094 C62.733,39.029 62.729,38.962 62.727,38.898 C62.721,38.794 62.719,38.689 62.712,38.586 C62.709,38.524 62.709,38.46 62.704,38.398 C62.698,38.291 62.693,38.183 62.683,38.077 C62.677,38.017 62.666,37.962 62.661,37.902 C62.527,36.56 62.238,35.276 61.81,34.081 C61.752,33.924 61.689,33.773 61.627,33.62 C61.565,33.466 61.511,33.308 61.445,33.158 C60.952,32.021 60.331,30.983 59.609,30.063 C59.231,29.583 58.825,29.14 58.393,28.731 C58.264,28.607 58.133,28.485 57.998,28.368 C57.748,28.152 57.49,27.951 57.227,27.76 C57.176,27.723 57.127,27.684 57.077,27.648 C56.876,27.507 56.668,27.378 56.458,27.252 C56.324,27.171 56.192,27.087 56.056,27.013 C55.866,26.91 55.668,26.821 55.474,26.73 C55.271,26.637 55.071,26.537 54.864,26.458 C53.818,26.061 52.707,25.845 51.554,25.845 C45.44,25.845 40.462,31.886 40.365,39.356 C40.364,39.43 40.356,39.502 40.356,39.579 C40.356,39.678 40.367,39.772 40.368,39.872 C40.369,39.964 40.376,40.054 40.379,40.145 C40.382,40.223 40.385,40.301 40.389,40.379 C40.395,40.504 40.396,40.63 40.404,40.755 C40.404,40.764 40.404,40.772 40.405,40.779 C40.412,40.88 40.417,40.982 40.426,41.084 C40.436,41.195 40.455,41.305 40.467,41.413 C40.49,41.623 40.514,41.831 40.545,42.036 C40.551,42.08 40.555,42.124 40.562,42.167 C40.584,42.313 40.612,42.456 40.638,42.602 C40.641,42.621 40.646,42.636 40.649,42.655 C40.67,42.766 40.695,42.876 40.718,42.985 C40.729,43.037 40.739,43.089 40.75,43.139 C40.84,43.548 40.945,43.95 41.064,44.343 C41.072,44.371 41.081,44.399 41.089,44.427 C41.126,44.546 41.157,44.668 41.196,44.786 C41.209,44.824 41.217,44.863 41.23,44.9 C41.273,45.023 41.327,45.142 41.372,45.265 C41.385,45.297 41.398,45.329 41.411,45.361 C41.46,45.491 41.509,45.618 41.561,45.744 C41.743,46.183 41.939,46.611 42.156,47.021 C42.222,47.146 42.287,47.271 42.357,47.392 L40.24,47.392 L35.209,47.392 L35.011,47.392 L35.011,48.402 L35.011,48.907 L35.011,49.41 L35.011,50.519 L35.011,51.462 L35.011,52.087 L35.011,52.603 L35.011,53.12 L35.011,53.453 L38.57,53.453 L41.181,53.453 L43.792,53.453 L63.004,53.453 L67.83,53.453 L67.83,52.992 L67.83,48.812 L67.83,48.31 L67.83,47.81 L67.83,47.396 L67.185,47.396 L66.689,47.396 L66.689,47.396 L66.689,47.396 Z M66.842,48.386 L66.842,48.424 L66.842,48.504 L66.842,49.008 L66.842,52.468 L55.398,52.468 L53.986,52.468 L49.14,52.468 L48.915,52.468 L47.726,52.468 L46.306,52.468 L43.694,52.468 L37.24,52.468 L36.001,52.468 L36.001,52.317 L36.001,51.801 L36.001,51.372 L36.001,50.876 L36.001,50.379 L36.001,49.223 L36.001,48.719 L36.001,48.386 L37.727,48.386 L40.338,48.386 L42.979,48.386 L43.584,48.386 L44.199,48.386 L45.171,48.386 L46.199,48.386 L47.513,48.386 L47.613,48.386 L49.367,48.386 L51.12,48.386 L52.886,48.386 L54.168,48.386 L55.154,48.386 L56.849,48.386 L58.926,48.386 L59.54,48.386 L60.144,48.386 L62.042,48.386 L64.84,48.386 L66.842,48.386 L66.842,48.386 Z M41.404,40.85 C41.384,40.602 41.381,40.348 41.373,40.094 C41.368,39.924 41.352,39.757 41.352,39.585 L41.352,39.58 C41.352,39.405 41.368,39.236 41.373,39.062 C41.593,32.276 46.073,26.835 51.562,26.835 C52.851,26.835 54.081,27.147 55.215,27.693 C55.413,27.788 55.609,27.889 55.801,28 C55.99,28.108 56.181,28.217 56.363,28.339 C56.63,28.517 56.885,28.713 57.137,28.918 C57.387,29.122 57.625,29.34 57.86,29.57 C58.096,29.803 58.324,30.049 58.544,30.307 C58.615,30.391 58.692,30.468 58.763,30.555 C59.166,31.057 59.532,31.608 59.864,32.188 C60.093,32.589 60.31,33.003 60.504,33.437 C60.57,33.588 60.627,33.744 60.69,33.898 C60.725,33.984 60.757,34.072 60.792,34.16 C60.817,34.227 60.847,34.292 60.869,34.36 C61.29,35.523 61.575,36.775 61.698,38.089 C61.707,38.181 61.719,38.271 61.725,38.36 C61.731,38.434 61.729,38.51 61.733,38.586 C61.74,38.681 61.742,38.776 61.745,38.871 C61.749,38.942 61.752,39.015 61.754,39.086 C61.757,39.185 61.765,39.282 61.767,39.381 C61.769,39.447 61.775,39.513 61.775,39.578 C61.775,40.712 61.646,41.807 61.421,42.852 C61.388,43.009 61.362,43.169 61.323,43.326 C61.319,43.337 61.319,43.348 61.315,43.36 C61.274,43.53 61.216,43.692 61.169,43.858 C61.168,43.863 61.167,43.867 61.166,43.871 C61.116,44.046 61.068,44.222 61.014,44.393 C61.007,44.411 61.002,44.43 60.996,44.449 C60.932,44.645 60.853,44.835 60.779,45.028 C60.706,45.221 60.636,45.421 60.554,45.61 C60.283,46.24 59.961,46.834 59.611,47.393 L56.48,47.393 L55.712,47.393 L54.877,47.393 L54.481,47.393 L52.727,47.393 L50.973,47.393 L45.459,47.393 L45.455,47.393 L44.559,47.393 L43.785,47.393 L43.513,47.393 C43.49,47.356 43.468,47.317 43.444,47.28 C43.372,47.162 43.299,47.044 43.23,46.923 C43.212,46.892 43.191,46.861 43.173,46.828 C42.962,46.448 42.762,46.057 42.584,45.647 C42.562,45.596 42.545,45.542 42.523,45.491 C42.479,45.386 42.44,45.274 42.398,45.17 C42.387,45.142 42.377,45.113 42.365,45.086 C42.314,44.953 42.26,44.825 42.212,44.69 C42.204,44.667 42.194,44.645 42.186,44.622 C42.134,44.474 42.091,44.319 42.044,44.168 C42.042,44.162 42.041,44.155 42.039,44.149 C42.017,44.076 41.996,44.002 41.974,43.928 C41.912,43.716 41.847,43.507 41.794,43.292 C41.766,43.18 41.748,43.063 41.723,42.95 C41.687,42.79 41.654,42.628 41.623,42.465 C41.621,42.456 41.619,42.448 41.617,42.44 C41.594,42.313 41.566,42.188 41.546,42.061 C41.542,42.035 41.54,42.006 41.536,41.979 C41.509,41.803 41.492,41.624 41.47,41.444 C41.451,41.247 41.419,41.051 41.404,40.85 L41.404,40.85 Z" fill="#304FFE"></path>
                        <path d="M74.66,41.199 L74.66,41.463 L74.66,41.693 L74.66,42.188 L80.227,42.188 L84.02,42.188 L85.083,42.188 L85.083,41.693 L85.083,41.199 L75.557,41.199 L74.66,41.199 Z" fill="#000000"></path>
                        <path d="M74.66,44.859 L74.66,45.354 L74.66,45.85 L77.982,45.85 L80.596,45.85 L83.205,45.85 L85.083,45.85 L85.083,45.486 L85.083,45.354 L85.083,44.982 L85.083,44.859 L83.107,44.859 L74.66,44.859 Z" fill="#000000"></path>
                        <path d="M74.66,49.018 L74.66,49.511 L85.083,49.511 L85.083,49.018 L85.083,48.521 L74.66,48.521 L74.66,49.018 Z" fill="#000000"></path>
                        <path d="M25.125,41.199 L24.032,41.199 L19.451,41.199 L19.451,41.639 L19.451,41.693 L19.451,42.188 L21.763,42.188 L23.515,42.188 L25.267,42.188 L27.089,42.188 L27.359,42.188 L29.873,42.188 L29.873,41.693 L29.873,41.199 L25.971,41.199 L25.125,41.199 Z" fill="#000000"></path>
                        <path d="M25.656,44.859 L24.204,44.859 L19.451,44.859 L19.451,45.314 L19.451,45.354 L19.451,45.85 L22.294,45.85 L24.046,45.85 L25.797,45.85 L27.442,45.85 L28.064,45.85 L29.873,45.85 L29.873,45.354 L29.873,44.859 L27.048,44.859 L25.656,44.859 Z" fill="#000000"></path>
                        <path d="M19.451,48.521 L19.451,48.995 L19.451,49.018 L19.451,49.511 L29.873,49.511 L29.873,49.018 L29.873,48.521 L24.39,48.521 L19.451,48.521 Z" fill="#000000"></path>
                        <path d="M15.573,58.174 C15.587,58.136 15.594,58.098 15.608,58.059 C15.619,58.03 15.626,57.997 15.637,57.966 C15.654,57.919 15.666,57.87 15.682,57.823 C15.697,57.773 15.713,57.726 15.726,57.677 C15.739,57.628 15.759,57.581 15.771,57.533 C15.862,57.159 15.925,56.776 15.925,56.375 C15.925,54.847 15.206,53.498 14.105,52.601 C14.001,52.517 13.907,52.422 13.797,52.347 C13.781,52.336 13.768,52.326 13.753,52.316 C13.629,52.232 13.49,52.171 13.358,52.101 C13.355,52.099 13.351,52.097 13.347,52.095 C13.346,52.093 13.343,52.091 13.341,52.09 C13.229,52.03 13.122,51.96 13.005,51.907 C12.965,51.889 12.926,51.87 12.885,51.854 C12.883,51.852 12.879,51.852 12.877,51.852 C12.871,51.848 12.865,51.848 12.859,51.846 C12.761,51.805 12.655,51.784 12.555,51.75 C12.505,51.732 12.454,51.719 12.404,51.703 C12.391,51.698 12.378,51.694 12.365,51.689 C12.348,51.685 12.332,51.679 12.315,51.673 C12.239,51.652 12.169,51.621 12.092,51.605 C12.021,51.588 11.949,51.582 11.877,51.569 C11.854,51.564 11.829,51.566 11.806,51.56 C11.645,51.535 11.481,51.521 11.315,51.511 C11.221,51.505 11.132,51.484 11.036,51.484 C9.443,51.484 8.038,52.261 7.145,53.446 C7.047,53.575 6.957,53.708 6.872,53.847 C6.79,53.98 6.717,54.118 6.648,54.259 C6.591,54.375 6.535,54.491 6.487,54.614 C6.432,54.756 6.392,54.904 6.351,55.052 C6.31,55.198 6.264,55.34 6.237,55.491 C6.184,55.777 6.148,56.07 6.148,56.371 C6.148,59.065 8.341,61.259 11.036,61.259 C12.814,61.259 14.358,60.294 15.214,58.872 C15.234,58.839 15.25,58.804 15.269,58.77 C15.286,58.742 15.302,58.709 15.317,58.68 C15.333,58.654 15.348,58.626 15.361,58.6 C15.394,58.538 15.432,58.479 15.462,58.414 C15.482,58.37 15.512,58.332 15.531,58.286 C15.548,58.256 15.557,58.213 15.573,58.174 L15.573,58.174 Z M14.102,58.878 C14.098,58.883 14.095,58.887 14.091,58.889 C14.08,58.905 14.07,58.917 14.058,58.932 C14.037,58.957 14.016,58.983 13.994,59.009 C13.265,59.827 12.216,60.354 11.036,60.354 C8.844,60.354 7.06,58.569 7.06,56.377 C7.06,56.141 7.09,55.908 7.13,55.682 C7.157,55.531 7.202,55.385 7.246,55.24 C7.29,55.093 7.329,54.94 7.39,54.802 C7.445,54.673 7.52,54.558 7.588,54.437 C7.675,54.285 7.768,54.136 7.874,53.997 C7.992,53.841 8.112,53.685 8.251,53.549 C8.969,52.843 9.952,52.403 11.036,52.403 C11.126,52.403 11.21,52.424 11.298,52.43 C11.397,52.436 11.495,52.448 11.591,52.459 C11.695,52.475 11.799,52.48 11.9,52.504 C11.957,52.518 12.009,52.54 12.065,52.557 C12.076,52.559 12.087,52.563 12.099,52.565 C12.198,52.594 12.296,52.624 12.392,52.658 C12.427,52.671 12.463,52.678 12.498,52.69 C12.518,52.7 12.54,52.702 12.56,52.711 C12.583,52.72 12.603,52.732 12.626,52.74 C12.676,52.761 12.719,52.794 12.769,52.818 C12.809,52.836 12.847,52.859 12.886,52.88 C12.918,52.898 12.949,52.913 12.98,52.931 C13.012,52.951 13.046,52.965 13.078,52.984 C13.113,53.005 13.15,53.019 13.183,53.043 C13.238,53.078 13.289,53.113 13.341,53.152 C13.386,53.183 13.424,53.222 13.468,53.256 C13.494,53.277 13.518,53.297 13.543,53.318 C13.628,53.387 13.718,53.452 13.797,53.529 C14.544,54.252 15.013,55.26 15.013,56.381 C15.013,56.901 14.907,57.393 14.725,57.846 C14.721,57.858 14.719,57.868 14.715,57.878 C14.71,57.893 14.708,57.907 14.702,57.92 C14.695,57.938 14.684,57.953 14.677,57.97 C14.611,58.118 14.528,58.257 14.445,58.395 C14.444,58.399 14.443,58.401 14.441,58.403 C14.441,58.405 14.44,58.405 14.44,58.407 C14.436,58.414 14.433,58.422 14.429,58.428 C14.331,58.583 14.221,58.732 14.102,58.878 L14.102,58.878 Z" fill="#000000"></path>
                    </g>
                </g>
            </g>
        </g>
    </g>
</svg>