<?xml version="1.0" encoding="UTF-8" standalone="no"?>
<svg width="84px" height="86px" viewBox="0 0 84 86" version="1.1" xmlns="http://www.w3.org/2000/svg" xmlns:xlink="http://www.w3.org/1999/xlink" xmlns:sketch="http://www.bohemiancoding.com/sketch/ns">
    <!-- Generator: Sketch 3.5.2 (25235) - http://www.bohemiancoding.com/sketch -->
    <title>r3</title>
    <desc>Created with Sketch.</desc>
    <defs></defs>
    <g id="Web" stroke="none" stroke-width="1" fill="none" fill-rule="evenodd" sketch:type="MSPage">
        <g id="r3" sketch:type="MSArtboardGroup">
            <g id="noun_189672_cc" sketch:type="MSLayerGroup" transform="translate(14.000000, 9.000000)">
                <path d="M55.0297229,0.341584158 L28.5954578,0.341584158 L28.4052289,0.341584158 L1.96959036,0.341584158 C1.17639759,0.341584158 0.532228916,0.98239604 0.532228916,1.77145545 L0.532228916,67.2285446 C0.532228916,68.0189703 1.17639759,68.6584158 1.96959036,68.6584158 L28.4045422,68.6584158 L28.5947711,68.6584158 L55.0290361,68.6584158 C55.8229157,68.6584158 56.4670843,68.017604 56.4670843,67.2285446 L56.4670843,1.77145545 C56.4677711,0.981029703 55.8236024,0.341584158 55.0297229,0.341584158 L55.0297229,0.341584158 Z" id="Shape" stroke="#000000" sketch:type="MSShapeGroup"></path>
                <path d="M17.9151687,47.3387822 L17.9151687,40.7038515 C19.887506,41.0727624 21.1504337,42.2218515 21.2033133,42.2703564 C21.4333735,42.4896535 21.7362289,42.6112574 22.0555663,42.6112574 C22.3934458,42.6112574 22.7086627,42.4780396 22.9428434,42.2355149 C23.4153253,41.749099 23.4015904,40.9702871 22.9119398,40.5009505 C22.8309036,40.4230693 20.927241,38.627703 17.9151687,38.2239505 L17.9151687,36.5447228 C17.9151687,35.8683861 17.3616506,35.3177525 16.6817711,35.3177525 C16.0025783,35.3177525 15.4490602,35.8683861 15.4490602,36.5447228 L15.4490602,38.2246337 C11.866988,38.6830396 9.47504819,41.0160594 9.47504819,44.074604 C9.47504819,47.6086337 13.5392169,48.7235644 15.4490602,49.205198 L15.4490602,56.5608713 C13.9231084,56.1912772 11.9033855,55.3414158 11.1294217,54.570802 C10.8959277,54.3392079 10.5862048,54.2121386 10.2565663,54.2121386 C9.92692771,54.2121386 9.61720482,54.3398911 9.38371084,54.570802 C8.9036747,55.0490198 8.9036747,55.8278317 9.38371084,56.3060495 C10.6363373,57.5514653 13.4588675,58.6868911 15.4476867,59.0653663 L15.4476867,60.5765347 C15.4476867,61.2528713 16.0012048,61.803505 16.6810843,61.803505 C17.3609639,61.803505 17.9144819,61.2528713 17.9144819,60.5765347 L17.9144819,59.120703 C20.7122892,58.739495 23.8891807,57.0951089 23.8891807,53.6437426 C23.8898675,50.8304554 21.7698795,48.5951287 17.9151687,47.3387822 L17.9151687,47.3387822 Z M21.423759,53.6437426 C21.423759,55.6365446 19.325747,56.3545545 17.9151687,56.6127921 L17.9151687,49.9471188 C19.5777831,50.6070594 21.423759,51.7629802 21.423759,53.6437426 L21.423759,53.6437426 Z M11.9411566,44.0752871 C11.9411566,42.0537921 13.7109036,41.0215248 15.4483735,40.7072673 L15.4483735,46.6651782 C13.8702289,46.2238515 11.9411566,45.4805644 11.9411566,44.0752871 L11.9411566,44.0752871 Z" id="Shape" fill="#304FFE" sketch:type="MSShapeGroup"></path>
                <path d="M28.2053855,20.2272475 C27.3703012,20.2272475 26.5462048,20.5216931 25.8628916,21.0607129 L19.4019759,14.2679703 C19.7288675,13.6599505 19.887506,13.0751584 19.887506,12.4828515 C19.887506,10.4080693 18.1905542,8.7199604 16.0973494,8.72064356 C14.0233735,8.79989109 12.3992169,10.4859505 12.3992169,12.558 C12.3992169,13.0922376 12.5118434,13.6114455 12.7357229,14.1026436 L7.28707229,19.3001881 L7.22320482,19.3603069 L7.22320482,22.0485743 L13.9924699,15.5489109 C14.649,15.9991188 15.3920602,16.2450594 16.1042169,16.2450594 C16.8198072,16.2450594 17.490759,16.0578713 18.0538916,15.7005743 L24.6981687,22.6039901 C24.5566988,23.029604 24.4227831,23.468198 24.4227831,23.9143069 C24.4227831,25.9884059 26.1197349,27.6765149 28.2046988,27.6765149 C30.2903494,27.6765149 31.9866145,25.9884059 31.9866145,23.9143069 C31.9866145,23.4975743 31.9248072,23.1259307 31.7936386,22.7563366 L36.0672651,18.6491287 C36.6146024,18.9900297 37.3466747,19.1977129 38.021747,19.1977129 C38.6899518,19.1977129 39.438506,18.970901 40.1424217,18.556901 L50.2520241,25.9064257 L50.2520241,23.4313069 L41.4087831,17.0409505 C41.6786747,16.5217426 41.8043494,16.0073168 41.8043494,15.4348218 C41.8043494,13.3607228 40.1073976,11.6726139 38.021747,11.6726139 C35.9374699,11.6726139 34.2405181,13.3607228 34.2405181,15.4348218 C34.2405181,16.024396 34.3977831,16.6078218 34.7219277,17.2137921 L30.6392169,21.1338119 C29.9895542,20.5633663 29.0947229,20.2272475 28.2053855,20.2272475 L28.2053855,20.2272475 Z M28.2053855,22.0745347 C29.2252048,22.0745347 30.0547952,22.899802 30.0547952,23.9143069 C30.0547952,24.9281287 29.2252048,25.7540792 28.2053855,25.7540792 C27.186253,25.7540792 26.3566627,24.9281287 26.3559759,23.9272871 C26.4273976,22.8533465 27.2054819,22.0745347 28.2053855,22.0745347 L28.2053855,22.0745347 Z M16.1948675,14.3984554 C15.1681807,14.3301386 14.3317229,13.5041881 14.3317229,12.558 C14.3317229,11.5441782 15.162,10.7189109 16.1811325,10.7189109 C17.2009518,10.7189109 18.0305422,11.5441782 18.0305422,12.558 C18.0312289,13.572505 17.2016386,14.3977723 16.1948675,14.3984554 L16.1948675,14.3984554 Z M38.021747,13.5950495 C39.042253,13.5950495 39.8711566,14.4203168 39.8711566,15.4341386 C39.8711566,16.4486436 39.042253,17.2739109 38.021747,17.2739109 C37.0225301,17.2739109 36.2444458,16.4944158 36.1737108,15.4341386 C36.1737108,14.4203168 37.0026145,13.5950495 38.021747,13.5950495 L38.021747,13.5950495 Z" id="Shape" fill="#000000" sketch:type="MSShapeGroup"></path>
                <path d="M47.315494,35.5220198 L29.1290602,35.5220198 C28.3358675,35.5220198 27.6916988,36.1607822 27.6916988,36.9512079 C27.6916988,37.7423168 28.3358675,38.3810792 29.1290602,38.3810792 L47.315494,38.3810792 C48.1093735,38.3810792 48.7521687,37.7423168 48.7521687,36.9512079 C48.7521687,36.1607822 48.1100602,35.5220198 47.315494,35.5220198 L47.315494,35.5220198 Z" id="Shape" fill="#000000" sketch:type="MSShapeGroup"></path>
                <path d="M47.315494,43.0464356 L29.1290602,43.0464356 C28.3358675,43.0464356 27.6916988,43.6858812 27.6916988,44.4763069 C27.6916988,45.2667327 28.3358675,45.9061782 29.1290602,45.9061782 L47.315494,45.9061782 C48.1093735,45.9061782 48.7521687,45.2667327 48.7521687,44.4763069 C48.7521687,43.6858812 48.1100602,43.0464356 47.315494,43.0464356 L47.315494,43.0464356 Z" id="Shape" fill="#000000" sketch:type="MSShapeGroup"></path>
                <path d="M47.315494,50.5708515 L29.1290602,50.5708515 C28.3358675,50.5708515 27.6916988,51.210297 27.6916988,52.0000396 C27.6916988,52.7911485 28.3358675,53.4299109 29.1290602,53.4299109 L47.315494,53.4299109 C48.1093735,53.4299109 48.7521687,52.7911485 48.7521687,52.0000396 C48.7521687,51.210297 48.1100602,50.5708515 47.315494,50.5708515 L47.315494,50.5708515 Z" id="Shape" fill="#000000" sketch:type="MSShapeGroup"></path>
                <path d="M47.315494,58.0959505 L29.1290602,58.0959505 C28.3358675,58.0959505 27.6916988,58.7347129 27.6916988,59.5251386 C27.6916988,60.3155644 28.3358675,60.9550099 29.1290602,60.9550099 L47.315494,60.9550099 C48.1093735,60.9550099 48.7521687,60.3155644 48.7521687,59.5251386 C48.7521687,58.7347129 48.1100602,58.0959505 47.315494,58.0959505 L47.315494,58.0959505 Z" id="Shape" fill="#000000" sketch:type="MSShapeGroup"></path>
            </g>
        </g>
    </g>
</svg>