<?xml version="1.0" encoding="UTF-8" standalone="no"?>
<svg width="84px" height="86px" viewBox="0 0 84 86" version="1.1" xmlns="http://www.w3.org/2000/svg" xmlns:xlink="http://www.w3.org/1999/xlink" xmlns:sketch="http://www.bohemiancoding.com/sketch/ns">
    <!-- Generator: Sketch 3.5.2 (25235) - http://www.bohemiancoding.com/sketch -->
    <title>r4</title>
    <desc>Created with Sketch.</desc>
    <defs></defs>
    <g id="Web" stroke="none" stroke-width="1" fill="none" fill-rule="evenodd" sketch:type="MSPage">
        <g id="r4" sketch:type="MSArtboardGroup">
            <g id="noun_41213_cc" sketch:type="MSLayerGroup" transform="translate(22.000000, 8.000000)">
                <path d="M26.9999997,10.5627727 L13.9999997,10.5627727 L8.94667308,10.5627727 C4.22378846,10.5627727 0.395019231,14.4793068 0.395019231,19.3116591 L0.395019231,60.7187159 C0.395019231,65.5518523 4.223,69.4676023 8.94667308,69.4676023 L32.0391346,69.4676023 C36.7612308,69.4676023 40.5915769,65.5518523 40.5915769,60.7187159 L40.5915769,19.3116591 C40.5907885,14.4793068 36.7612308,10.5627727 32.0391346,10.5627727 L26.9999997,10.5627727 Z" id="Shape" stroke="#000000" sketch:type="MSShapeGroup"></path>
                <rect id="Rectangle-107" stroke="#000000" sketch:type="MSShapeGroup" x="7" y="0" width="27" height="9"></rect>
                <path d="M10.5,2.5 L10.5,6.5" id="Line" stroke="#000000" stroke-linecap="square" sketch:type="MSShapeGroup"></path>
                <path d="M30.5,2.5 L30.5,6.5" id="Line" stroke="#000000" stroke-linecap="square" sketch:type="MSShapeGroup"></path>
                <path d="M15.5,2.5 L15.5,6.5" id="Line" stroke="#000000" stroke-linecap="square" sketch:type="MSShapeGroup"></path>
                <path d="M20.5,2.5 L20.5,6.5" id="Line" stroke="#000000" stroke-linecap="square" sketch:type="MSShapeGroup"></path>
                <path d="M25.5,2.5 L25.5,6.5" id="Line" stroke="#000000" stroke-linecap="square" sketch:type="MSShapeGroup"></path>
                <g id="Group" transform="translate(5.519231, 17.465909)" sketch:type="MSShapeGroup">
                    <path d="M16.84075,1.61757955 C20.2043269,3.59270455 23.9763269,7.43945455 28.1591154,8.23060227 C28.1638462,8.26431818 28.1638462,8.3145 28.1488654,8.38506818 C25.6920192,20.6623636 21.7394615,26.5187386 16.2935577,33.0439432 C16.2596538,33.0886364 16.2194423,33.1129432 16.1973654,33.1239205 C10.9958846,30.0228409 6.20519231,25.5378409 1.82528846,24.4597159 C1.83317308,24.434625 1.84973077,24.3930682 1.88836538,24.3428864 C8.34428846,14.9949545 13.3084423,9.98853409 16.7768846,1.72343182 C16.79975,1.66932955 16.8234038,1.63639773 16.84075,1.61757955 L16.84075,1.61757955 Z M16.8478462,0.637465909 C16.5797692,0.679806818 16.3022308,0.947965909 16.1382308,1.33922727 C12.6059231,9.31264773 7.57869231,14.6115341 1.05732692,24.1970455 C0.648903846,24.7365 0.661519231,25.1904886 1.10148077,25.279875 C5.55628846,26.2772386 10.4321346,30.8382955 15.7274423,33.8899773 C15.8685769,33.9723068 16.0191731,34.0248409 16.1745,34.0491477 C16.6010577,34.1142273 17.0473269,33.9676023 17.2949038,33.6492614 C22.6753654,27.3357614 26.5640577,21.0763636 28.95625,8.47994318 C29.1060577,7.75309091 28.8813462,7.16502273 28.4689808,7.107 C24.2696346,6.43895455 20.48975,2.55770455 17.1293269,0.69 C17.0402308,0.63825 16.9440385,0.622568182 16.8478462,0.637465909 L16.8478462,0.637465909 L16.8478462,0.637465909 Z" id="Shape" fill="#000000"></path>
                    <g transform="translate(11.038462, 11.761364)" id="Shape">
                        <path d="M6.30217308,6.01476136 C6.59942308,6.27507955 6.89903846,6.53618182 7.20023077,6.7965 C7.31219231,6.45777273 7.19865385,6.15432955 6.98498077,5.97006818 C6.765,5.78031818 6.55211538,5.85715909 6.30217308,6.01476136 L6.30217308,6.01476136 Z" fill="#304FFE"></path>
                        <path d="M8.01628846,1.67560227 C5.48532692,-0.476727273 2.49705769,-0.309715909 0.883865385,1.871625 C-0.715134615,4.07256818 -0.0938269231,7.35947727 2.73280769,9.70469318 C5.54682692,12.0522614 9.25890385,12.3674659 10.5653846,9.96814773 C11.8821154,7.56490909 10.537,3.80676136 8.01628846,1.67560227 L8.01628846,1.67560227 Z M8.06517308,7.53040909 C8.27017308,7.702125 8.47596154,7.87227273 8.68253846,8.04006818 C8.57609615,8.21805682 8.46886538,8.39369318 8.35926923,8.56854545 C8.15190385,8.39682955 7.94453846,8.22511364 7.73875,8.05104545 C7.30825,8.57638636 6.75159615,8.75280682 6.16655769,8.71909091 C6.00807692,8.36232955 5.85038462,8.004 5.69426923,7.64723864 C6.09638462,7.68095455 6.53555769,7.59392045 6.85567308,7.29988636 C6.50559615,6.99644318 6.15630769,6.69378409 5.81175,6.38955682 C5.27323077,6.79806818 4.58096154,7.15169318 3.67344231,6.36446591 C2.99930769,5.78110227 2.75567308,4.88096591 3.18065385,4.08511364 C2.98038462,3.91339773 2.78248077,3.74403409 2.58536538,3.57702273 C2.70442308,3.40922727 2.82348077,3.24221591 2.94175,3.07520455 C3.14201923,3.24535227 3.34386538,3.41863636 3.5465,3.59427273 C3.90525,3.21085227 4.34757692,3.00542045 4.85771154,2.99130682 C4.98780769,3.33395455 5.12184615,3.67738636 5.25509615,4.02238636 C4.91369231,4.02865909 4.61880769,4.14627273 4.38305769,4.32426136 C4.68109615,4.58614773 4.9815,4.85273864 5.28269231,5.12011364 C5.83303846,4.71160227 6.48746154,4.29917045 7.39182692,5.07934091 C8.12036538,5.70739773 8.46492308,6.61851136 8.06517308,7.53040909 L8.06517308,7.53040909 Z" fill="#304FFE"></path>
                        <path d="M4.15519231,5.52470455 C4.34521154,5.69171591 4.55021154,5.63134091 4.78675,5.48863636 C4.52103846,5.25419318 4.25690385,5.02131818 3.99513462,4.79157955 C3.86898077,5.06052273 3.93048077,5.33025 4.15519231,5.52470455 L4.15519231,5.52470455 Z" fill="#000000"></path>
                    </g>
                </g>
                <g id="Group" transform="translate(9.461538, 55.886364)" fill="#000000" sketch:type="MSShapeGroup">
                    <path d="M8.16373077,4.78060227 C3.28315385,4.78138636 0.710403846,3.65543182 0.570846154,3.59270455 C0.4715,3.54801136 0.41,3.44686364 0.417096154,3.33865909 L0.552711538,1.03107955 C0.561384615,0.886806818 0.689903846,0.780170455 0.831038462,0.785659091 C0.975326923,0.794284091 1.08571154,0.918170455 1.07703846,1.06244318 L0.954038462,3.182625 C1.82213462,3.51194318 6.08140385,4.91232955 13.2974038,3.87340909 L13.4204038,1.77753409 C13.4298654,1.63247727 13.5528654,1.52976136 13.6995192,1.53211364 C13.8438077,1.54073864 13.9541923,1.664625 13.9463077,1.80889773 L13.8114808,4.11647727 C13.8028077,4.24036364 13.7097692,4.34151136 13.5875577,4.36032955 C11.5438654,4.66298864 9.73513462,4.78060227 8.16373077,4.78060227 L8.16373077,4.78060227 Z" id="Shape"></path>
                    <path d="M9.63184615,2.66904545 C8.85205769,2.66904545 8.02732692,2.64395455 7.18130769,2.59455682 C6.06326923,2.52947727 0.488057692,2.14840909 0.5535,1.03107955 C0.566115385,0.817806818 0.603961538,0.169363636 4.86953846,0.169363636 C5.64932692,0.169363636 6.47248077,0.193670455 7.31928846,0.243068182 C8.43653846,0.308931818 14.01175,0.688431818 13.9470962,1.80654545 C13.9329038,2.01981818 13.8958462,2.66904545 9.63184615,2.66904545 L9.63184615,2.66904545 Z M1.13459615,1.06557955 C1.58717308,1.37764773 3.82482692,1.87554545 7.21048077,2.07156818 C8.04703846,2.12018182 8.86230769,2.14527273 9.63105769,2.14527273 C11.8789615,2.14527273 13.0443077,1.93435227 13.3628462,1.77282955 C12.9102692,1.45919318 10.6718269,0.962863636 7.28696154,0.766840909 C6.45119231,0.718227273 5.63671154,0.693136364 4.86796154,0.693136364 C2.62084615,0.693920455 1.45392308,0.903272727 1.13459615,1.06557955 L1.13459615,1.06557955 Z" id="Shape"></path>
                    <path d="M1.52488462,3.89301136 C1.52015385,3.89301136 1.51542308,3.89301136 1.51148077,3.89222727 C1.38375,3.88517045 1.28676923,3.77696591 1.29465385,3.65072727 L1.41765385,1.53917045 C1.42475,1.41371591 1.53513462,1.31570455 1.66128846,1.32354545 C1.78823077,1.33138636 1.88521154,1.43959091 1.87732692,1.56582955 L1.75432692,3.67738636 C1.74723077,3.79892045 1.64551923,3.89301136 1.52488462,3.89301136 L1.52488462,3.89301136 Z" id="Shape"></path>
                    <path d="M2.45842308,4.00043182 L2.44580769,4.00043182 C2.31807692,3.99259091 2.22109615,3.88517045 2.22976923,3.75814773 L2.34094231,1.854375 C2.34882692,1.72892045 2.46078846,1.63169318 2.58457692,1.63953409 C2.71073077,1.647375 2.80771154,1.75479545 2.80061538,1.88181818 L2.68865385,3.78480682 C2.68155769,3.90634091 2.57984615,4.00043182 2.45842308,4.00043182 L2.45842308,4.00043182 Z" id="Shape"></path>
                    <path d="M3.38565385,4.26231818 L3.37225,4.26231818 C3.24530769,4.25447727 3.14832692,4.14705682 3.15621154,4.02003409 L3.26896154,2.1045 C3.27605769,1.97904545 3.37698077,1.88181818 3.51180769,1.89044318 C3.63875,1.89828409 3.73494231,2.00648864 3.72863462,2.13272727 L3.61509615,4.04747727 C3.608,4.16822727 3.50628846,4.26231818 3.38565385,4.26231818 L3.38565385,4.26231818 Z" id="Shape"></path>
                    <path d="M4.32392308,4.31642045 C4.31919231,4.31642045 4.31525,4.31642045 4.30973077,4.31563636 C4.18357692,4.30779545 4.08659615,4.20115909 4.09369231,4.07335227 L4.20723077,2.16095455 C4.21590385,2.0355 4.31761538,1.93121591 4.45165385,1.94611364 C4.57859615,1.95473864 4.67478846,2.061375 4.66769231,2.18918182 L4.55336538,4.10157955 C4.54626923,4.22232955 4.44613462,4.31642045 4.32392308,4.31642045 L4.32392308,4.31642045 Z" id="Shape"></path>
                    <path d="M5.25115385,4.56811364 L5.23775,4.56811364 C5.11080769,4.56027273 5.01382692,4.45285227 5.02171154,4.32582955 L5.1455,2.21427273 C5.15338462,2.08725 5.24484615,1.98139773 5.38913462,1.99943182 C5.51607692,2.00648864 5.61305769,2.11469318 5.60438462,2.24171591 L5.48059615,4.35405682 C5.47428846,4.47480682 5.37178846,4.56811364 5.25115385,4.56811364 L5.25115385,4.56811364 Z" id="Shape"></path>
                    <path d="M6.191,4.623 C6.18705769,4.623 6.18153846,4.623 6.17759615,4.62143182 C6.05065385,4.61359091 5.95367308,4.50695455 5.96234615,4.38071591 L6.08534615,2.26915909 C6.09244231,2.14370455 6.20440385,2.04098864 6.32819231,2.05510227 C6.45513462,2.06215909 6.55132692,2.16957955 6.54423077,2.29581818 L6.42123077,4.40659091 C6.41413462,4.528125 6.31242308,4.623 6.191,4.623 L6.191,4.623 Z" id="Shape"></path>
                    <path d="M7.13005769,4.67710227 L7.11586538,4.67710227 C6.98892308,4.66926136 6.89273077,4.56105682 6.89982692,4.43481818 L7.02282692,2.32326136 C7.02992308,2.19780682 7.13794231,2.09352273 7.26567308,2.10842045 C7.39340385,2.11547727 7.49038462,2.22368182 7.48171154,2.34992045 L7.35871154,4.46147727 C7.35161538,4.58301136 7.24990385,4.67710227 7.13005769,4.67710227 L7.13005769,4.67710227 Z" id="Shape"></path>
                    <path d="M8.06753846,4.73120455 C8.06280769,4.73120455 8.05965385,4.73120455 8.05413462,4.73042045 C7.92719231,4.72257955 7.83021154,4.61594318 7.83809615,4.48892045 L7.96188462,2.37814773 C7.96819231,2.25269318 8.07778846,2.14292045 8.20473077,2.16330682 C8.33246154,2.17036364 8.42944231,2.27856818 8.42076923,2.40480682 L8.29698077,4.51636364 C8.28988462,4.63711364 8.18896154,4.73120455 8.06753846,4.73120455 L8.06753846,4.73120455 Z" id="Shape"></path>
                    <path d="M9.00817308,4.74767045 C9.00423077,4.74767045 8.9995,4.74767045 8.99555769,4.74688636 C8.86861538,4.73904545 8.77163462,4.631625 8.77951923,4.50381818 L8.90094231,2.43146591 C8.90803846,2.30601136 9.00659615,2.20486364 9.14536538,2.21740909 C9.27230769,2.22525 9.3685,2.33188636 9.36061538,2.45969318 L9.23919231,4.53204545 C9.23209615,4.65357955 9.12959615,4.74767045 9.00817308,4.74767045 L9.00817308,4.74767045 Z" id="Shape"></path>
                    <path d="M9.95748077,4.64338636 L9.9425,4.64338636 C9.81555769,4.63554545 9.71936538,4.528125 9.72725,4.40110227 L9.84,2.48635227 C9.84867308,2.36011364 9.94801923,2.25582955 10.0844231,2.27151136 C10.2105769,2.27935227 10.3075577,2.38755682 10.2996731,2.51379545 L10.1869231,4.42932955 C10.1798269,4.55007955 10.0789038,4.64338636 9.95748077,4.64338636 L9.95748077,4.64338636 Z" id="Shape"></path>
                    <path d="M10.8996923,4.63319318 C10.8949615,4.63319318 10.8918077,4.63319318 10.8862885,4.63240909 C10.7593462,4.62456818 10.6623654,4.51793182 10.67025,4.39090909 L10.7790577,2.54045455 C10.7861538,2.415 10.9044231,2.31463636 11.0219038,2.32639773 C11.1488462,2.33423864 11.2458269,2.440875 11.2387308,2.56789773 L11.1291346,4.41835227 C11.12125,4.53910227 11.0211154,4.63319318 10.8996923,4.63319318 L10.8996923,4.63319318 Z" id="Shape"></path>
                    <path d="M11.8474231,4.545375 L11.8324423,4.545375 C11.7062885,4.53753409 11.6093077,4.43089773 11.6171923,4.30309091 L11.7173269,2.59534091 C11.726,2.46988636 11.8150962,2.36717045 11.96175,2.38128409 C12.0886923,2.38834091 12.1848846,2.49576136 12.177,2.62356818 L12.0768654,4.33131818 C12.0705577,4.45206818 11.9688462,4.545375 11.8474231,4.545375 L11.8474231,4.545375 Z" id="Shape"></path>
                    <path d="M12.7951538,4.43325 L12.7825385,4.43325 C12.6555962,4.42540909 12.5586154,4.31798864 12.5665,4.19096591 L12.6839808,2.19075 C12.6910769,2.06529545 12.7825385,1.96885227 12.9268269,1.97669318 C13.0537692,1.98375 13.1499615,2.09117045 13.1428654,2.21897727 L13.0253846,4.21840909 C13.0175,4.33994318 12.9157885,4.43325 12.7951538,4.43325 L12.7951538,4.43325 Z" id="Shape"></path>
                </g>
                <g id="Group" transform="translate(3.942308, 58.238636)" fill="#000000" sketch:type="MSShapeGroup">
                    <path d="M11.1819615,5.45178409 C4.11498077,5.45178409 0.581096154,3.48371591 0.419461538,3.39197727 C0.325634615,3.33865909 0.274384615,3.23202273 0.290153846,3.12538636 L0.646538462,0.841329545 C0.668615385,0.698625 0.805807692,0.602965909 0.946942308,0.623352273 C1.09201923,0.645306818 1.18978846,0.779386364 1.16692308,0.922090909 L0.839711538,3.02031818 C1.67075,3.42961364 5.77705769,5.22753409 13.0600769,4.88410227 L13.3841346,2.81018182 C13.4054231,2.66669318 13.54025,2.56632955 13.68375,2.59142045 C13.8280385,2.61415909 13.9265962,2.74745455 13.9045192,2.89015909 L13.5473462,5.17421591 C13.5284231,5.29575 13.4267115,5.38827273 13.3013462,5.39532955 C12.5633462,5.43375 11.8560962,5.45178409 11.1819615,5.45178409 L11.1819615,5.45178409 Z" id="Shape"></path>
                    <path d="M11.8679231,3.46411364 C10.6221538,3.46411364 8.88280769,3.30651136 7.09378846,3.03051136 C5.98757692,2.85879545 0.474653846,1.94768182 0.64575,0.842113636 C0.693057692,0.543375 0.972961538,0.268159091 2.68155769,0.268159091 C3.92811538,0.268159091 5.66825,0.426545455 7.45726923,0.703329545 C9.17059615,0.968352273 10.7680192,1.31256818 11.9554423,1.67246591 C13.7547115,2.21740909 13.95025,2.59455682 13.9045192,2.89094318 C13.8564231,3.18811364 13.5796731,3.46411364 11.8679231,3.46411364 L11.8679231,3.46411364 Z M1.22526923,0.933852273 C1.65340385,1.28904545 3.83034615,1.99551136 7.175,2.51301136 C8.93721154,2.785875 10.6489615,2.94190909 11.8679231,2.94190909 C12.8014615,2.94190909 13.1791346,2.85330682 13.325,2.79763636 C12.8968654,2.44244318 10.7207115,1.73597727 7.37684615,1.22004545 C5.61384615,0.946397727 3.90288462,0.789579545 2.68234615,0.789579545 C1.75038462,0.790363636 1.37034615,0.878965909 1.22526923,0.933852273 L1.22526923,0.933852273 Z" id="Shape"></path>
                    <path d="M1.36167308,3.78245455 C1.34905769,3.78245455 1.33801923,3.78167045 1.32461538,3.77931818 C1.20003846,3.76128409 1.11330769,3.64288636 1.13301923,3.519 L1.45865385,1.42861364 C1.47757692,1.30394318 1.59584615,1.21769318 1.722,1.23729545 C1.84736538,1.25689773 1.93488462,1.37451136 1.91438462,1.49918182 L1.58875,3.58878409 C1.56982692,3.70169318 1.47205769,3.78245455 1.36167308,3.78245455 L1.36167308,3.78245455 Z" id="Shape"></path>
                    <path d="M2.28101923,3.98004545 C2.26919231,3.98004545 2.25815385,3.98004545 2.24553846,3.97769318 C2.12017308,3.958875 2.03423077,3.84047727 2.05394231,3.71659091 L2.34803846,1.83320455 C2.36696154,1.70775 2.48680769,1.6215 2.60980769,1.64188636 C2.73675,1.65992045 2.82269231,1.77831818 2.80219231,1.90220455 L2.50730769,3.78715909 C2.48996154,3.90085227 2.39219231,3.98004545 2.28101923,3.98004545 L2.28101923,3.98004545 Z" id="Shape"></path>
                    <path d="M3.17671154,4.32896591 C3.16567308,4.32896591 3.15384615,4.32739773 3.14123077,4.32582955 C3.01665385,4.30622727 2.92913462,4.18939773 2.94884615,4.06394318 L3.24609615,2.17036364 C3.26580769,2.04569318 3.38092308,1.96101136 3.50944231,1.97982955 C3.63480769,1.99943182 3.72075,2.11626136 3.70103846,2.24171591 L3.40457692,4.13451136 C3.38723077,4.24820455 3.28946154,4.32896591 3.17671154,4.32896591 L3.17671154,4.32896591 Z" id="Shape"></path>
                    <path d="M4.10630769,4.47323864 C4.09526923,4.47323864 4.08265385,4.47245455 4.07082692,4.47010227 C3.94546154,4.45128409 3.85873077,4.33367045 3.87923077,4.209 L4.17569231,2.31385227 C4.19461538,2.18839773 4.31603846,2.10214773 4.43825,2.12253409 C4.56361538,2.14213636 4.64955769,2.25896591 4.62984615,2.38363636 L4.33338462,4.27956818 C4.31682692,4.39247727 4.21905769,4.47323864 4.10630769,4.47323864 L4.10630769,4.47323864 Z" id="Shape"></path>
                    <path d="M5.00673077,4.81118182 C4.99411538,4.81118182 4.98307692,4.81039773 4.96967308,4.80882955 C4.84509615,4.78922727 4.75915385,4.67239773 4.77886538,4.54694318 L5.10528846,2.45734091 C5.12421154,2.33267045 5.24248077,2.24798864 5.36784615,2.26680682 C5.49321154,2.285625 5.57994231,2.40323864 5.55944231,2.52790909 L5.23380769,4.61751136 C5.21488462,4.73042045 5.11711538,4.81118182 5.00673077,4.81118182 L5.00673077,4.81118182 Z" id="Shape"></path>
                    <path d="M5.93553846,4.95388636 C5.92371154,4.95388636 5.91188462,4.95388636 5.89926923,4.95231818 C5.77469231,4.93271591 5.68717308,4.81510227 5.70688462,4.69043182 L6.03409615,2.60161364 C6.05380769,2.47615909 6.17365385,2.39304545 6.29665385,2.41029545 C6.42123077,2.42989773 6.50875,2.54672727 6.48903846,2.67139773 L6.16261538,4.761 C6.14526923,4.87469318 6.0475,4.95388636 5.93553846,4.95388636 L5.93553846,4.95388636 Z" id="Shape"></path>
                    <path d="M6.86355769,5.09972727 C6.85251923,5.09972727 6.84069231,5.09815909 6.82886538,5.09659091 C6.70271154,5.07698864 6.61676923,4.96015909 6.63726923,4.83470455 L6.96211538,2.74431818 C6.98182692,2.61886364 7.10009615,2.53339773 7.22625,2.553 C7.35161538,2.57260227 7.43834615,2.68943182 7.41863462,2.81488636 L7.09063462,4.90527273 C7.07407692,5.01818182 6.97630769,5.09972727 6.86355769,5.09972727 L6.86355769,5.09972727 Z" id="Shape"></path>
                    <path d="M7.79473077,5.24243182 C7.78290385,5.24243182 7.77107692,5.24243182 7.75846154,5.24007955 C7.63309615,5.22126136 7.54715385,5.10364773 7.56686538,4.97897727 L7.8925,2.88859091 C7.91142308,2.76392045 8.03126923,2.67923864 8.15505769,2.69805682 C8.28121154,2.716875 8.36715385,2.83527273 8.34744231,2.95915909 L8.02101923,5.04954545 C8.00288462,5.16167045 7.90590385,5.24243182 7.79473077,5.24243182 L7.79473077,5.24243182 Z" id="Shape"></path>
                    <path d="M8.72905769,5.3475 C8.71644231,5.3475 8.70540385,5.34593182 8.692,5.34436364 C8.56742308,5.32476136 8.48148077,5.20793182 8.50040385,5.08404545 L8.82051923,3.03207955 C8.84101923,2.906625 8.96086538,2.81959091 9.08386538,2.84076136 C9.20923077,2.86036364 9.29675,2.97719318 9.27625,3.10264773 L8.95534615,5.15304545 C8.938,5.26673864 8.84023077,5.3475 8.72905769,5.3475 L8.72905769,5.3475 Z" id="Shape"></path>
                    <path d="M9.68151923,5.33417045 C9.66890385,5.33417045 9.65786538,5.33260227 9.64525,5.33103409 C9.51988462,5.31143182 9.43394231,5.19460227 9.45365385,5.06914773 L9.75011538,3.17556818 C9.76903846,3.05089773 9.88809615,2.96464773 10.01425,2.98503409 C10.1388269,3.00463636 10.2263462,3.12146591 10.2066346,3.24692045 L9.90859615,5.1405 C9.89125,5.252625 9.79269231,5.33417045 9.68151923,5.33417045 L9.68151923,5.33417045 Z" id="Shape"></path>
                    <path d="M10.6221538,5.41336364 C10.6095385,5.41336364 10.5985,5.41179545 10.5866731,5.41022727 C10.4597308,5.39140909 10.3745769,5.27379545 10.3942885,5.149125 L10.6797115,3.31905682 C10.6994231,3.19360227 10.8192692,3.10970455 10.9422692,3.12852273 C11.0692115,3.14655682 11.1543654,3.26495455 11.1346538,3.38884091 L10.8492308,5.21890909 C10.8310962,5.33260227 10.7325385,5.41336364 10.6221538,5.41336364 L10.6221538,5.41336364 Z" id="Shape"></path>
                    <path d="M11.5746154,5.41806818 C11.562,5.41806818 11.5509615,5.4165 11.5391346,5.41493182 C11.4137692,5.39532955 11.32625,5.2785 11.3459615,5.15304545 L11.6100962,3.46254545 C11.6290192,3.337875 11.7496538,3.25084091 11.8718654,3.27122727 C11.9972308,3.29082955 12.0839615,3.40844318 12.06425,3.53311364 L11.8016923,5.22361364 C11.7835577,5.33730682 11.685,5.41806818 11.5746154,5.41806818 L11.5746154,5.41806818 Z" id="Shape"></path>
                    <path d="M12.5278654,5.39532955 C12.5168269,5.39532955 12.5057885,5.39376136 12.4931731,5.39219318 C12.3678077,5.37259091 12.2810769,5.25576136 12.3015769,5.13109091 L12.6114423,3.15361364 C12.6303654,3.02815909 12.7494231,2.94190909 12.8732115,2.96229545 C12.9993654,2.98189773 13.0853077,3.09872727 13.0655962,3.22418182 L12.7549423,5.200875 C12.7375962,5.31378409 12.6398269,5.39532955 12.5278654,5.39532955 L12.5278654,5.39532955 Z" id="Shape"></path>
                </g>
                <g id="Group" transform="translate(22.865385, 58.238636)" fill="#000000" sketch:type="MSShapeGroup">
                    <path d="M3.06317308,6.16217045 C1.72830769,6.16217045 0.984,6.01789773 0.908307692,6.003 C0.801865385,5.98104545 0.719865385,5.89557955 0.701730769,5.78894318 L0.322480769,3.510375 C0.299615385,3.36610227 0.396596154,3.23202273 0.538519231,3.2085 C0.680442308,3.18732955 0.817634615,3.28063636 0.841288462,3.424125 L1.189,5.51764773 C2.10834615,5.64780682 6.57419231,6.08140909 13.3841346,3.48528409 L13.0387885,1.41606818 C13.0159231,1.27257955 13.1121154,1.1385 13.2540385,1.11419318 C13.3959615,1.08988636 13.5331538,1.18632955 13.5575962,1.32981818 L13.9376346,3.60917045 C13.9573462,3.73070455 13.88875,3.85067045 13.7736346,3.89536364 C8.89148077,5.787375 5.21173077,6.16217045 3.06317308,6.16217045 L3.06317308,6.16217045 Z" id="Shape"></path>
                    <path d="M2.22030769,4.06472727 C0.937480769,4.06472727 0.387923077,3.90320455 0.321692308,3.510375 C0.272807692,3.21320455 0.464403846,2.83527273 2.25815385,2.27151136 C3.44242308,1.89906818 5.03669231,1.53917045 6.74686538,1.25846591 C8.61157692,0.951102273 10.4013846,0.77625 11.6581923,0.77625 C12.9418077,0.77625 13.4929423,0.936988636 13.5575962,1.33138636 C13.6064808,1.62620455 13.4164615,2.00492045 11.6219231,2.56868182 C10.4392308,2.941125 8.84417308,3.30102273 7.13321154,3.58172727 C5.26692308,3.88830682 3.47553846,4.06472727 2.22030769,4.06472727 L2.22030769,4.06472727 Z M0.900423077,3.41079545 C1.03840385,3.46097727 1.38611538,3.54095455 2.22109615,3.54095455 C3.44951923,3.54095455 5.20778846,3.36767045 7.04726923,3.06501136 C10.3864038,2.51693182 12.5570385,1.78851136 12.9804423,1.42939773 C12.8408846,1.37921591 12.4923846,1.29923864 11.6581923,1.29923864 C10.4297692,1.29923864 8.6715,1.47330682 6.83280769,1.77518182 C3.49367308,2.32326136 1.32303846,3.05246591 0.900423077,3.41079545 L0.900423077,3.41079545 Z" id="Shape"></path>
                    <path d="M1.85288462,6.09238636 C1.7425,6.09238636 1.64551923,6.01240909 1.62659615,5.90028409 L1.28046154,3.81460227 C1.25917308,3.68993182 1.34275,3.57153409 1.46811538,3.55036364 C1.59111538,3.52684091 1.71332692,3.613875 1.73382692,3.73932955 L2.07996154,5.82501136 C2.10046154,5.94968182 2.01688462,6.06807955 1.89230769,6.08925 C1.87811538,6.09081818 1.8655,6.09238636 1.85288462,6.09238636 L1.85288462,6.09238636 Z" id="Shape"></path>
                    <path d="M2.788,5.994375 C2.67840385,5.994375 2.57984615,5.91439773 2.5625,5.80227273 L2.24869231,3.92045455 C2.22819231,3.795 2.31255769,3.67738636 2.43871154,3.657 C2.55540385,3.63582955 2.68234615,3.71972727 2.70363462,3.84518182 L3.01586538,5.727 C3.03557692,5.85088636 2.95121154,5.96928409 2.82663462,5.99045455 C2.81323077,5.99280682 2.80219231,5.994375 2.788,5.994375 L2.788,5.994375 Z" id="Shape"></path>
                    <path d="M3.74992308,6.046125 C3.63953846,6.046125 3.54255769,5.96614773 3.52363462,5.85480682 L3.20903846,3.96201136 C3.18932692,3.83655682 3.27369231,3.71815909 3.39905769,3.69855682 C3.52048077,3.67425 3.64426923,3.76285227 3.66398077,3.88673864 L3.97778846,5.77953409 C3.99828846,5.90498864 3.91471154,6.02260227 3.78855769,6.04298864 C3.77436538,6.04455682 3.76253846,6.046125 3.74992308,6.046125 L3.74992308,6.046125 Z" id="Shape"></path>
                    <path d="M4.67873077,5.89244318 C4.56676923,5.89244318 4.47057692,5.81246591 4.45165385,5.70034091 L4.13705769,3.80911364 C4.11734615,3.68522727 4.20092308,3.56682955 4.32628846,3.54722727 C4.44613462,3.52292045 4.57071154,3.60917045 4.59042308,3.73540909 L4.90501923,5.62663636 C4.92630769,5.75052273 4.84194231,5.86892045 4.71578846,5.88852273 C4.70396154,5.89165909 4.68976923,5.89244318 4.67873077,5.89244318 L4.67873077,5.89244318 Z" id="Shape"></path>
                    <path d="M5.63828846,5.934 C5.52711538,5.934 5.42855769,5.85559091 5.412,5.74268182 L5.0635,3.65543182 C5.04378846,3.53154545 5.12815385,3.41314773 5.25351923,3.39276136 C5.371,3.37080682 5.49715385,3.45627273 5.51765385,3.58172727 L5.86536538,5.66897727 C5.88586538,5.79286364 5.80071154,5.91126136 5.67534615,5.93164773 C5.66430769,5.934 5.65090385,5.934 5.63828846,5.934 L5.63828846,5.934 Z" id="Shape"></path>
                    <path d="M6.56630769,5.78188636 C6.45513462,5.78188636 6.35736538,5.70190909 6.33923077,5.58978409 L5.99309615,3.50410227 C5.97180769,3.37864773 6.05696154,3.26103409 6.18232692,3.24064773 C6.29823077,3.21790909 6.42675,3.303375 6.44725,3.42882955 L6.79338462,5.51607955 C6.81467308,5.63996591 6.72873077,5.75836364 6.60336538,5.77796591 C6.59075,5.78110227 6.57892308,5.78188636 6.56630769,5.78188636 L6.56630769,5.78188636 Z" id="Shape"></path>
                    <path d="M7.49432692,5.62977273 C7.38315385,5.62977273 7.28538462,5.54979545 7.26725,5.43845455 L6.92032692,3.35120455 C6.89982692,3.22653409 6.98419231,3.10813636 7.10876923,3.08775 C7.22861538,3.06657955 7.35398077,3.15047727 7.37369231,3.27593182 L7.72140385,5.36318182 C7.74190385,5.48863636 7.65753846,5.60625 7.53138462,5.62663636 C7.51876923,5.62820455 7.50694231,5.62977273 7.49432692,5.62977273 L7.49432692,5.62977273 Z" id="Shape"></path>
                    <path d="M8.42234615,5.47609091 C8.31038462,5.47609091 8.21419231,5.39611364 8.19526923,5.28477273 L7.84834615,3.19909091 C7.82784615,3.07442045 7.913,2.95680682 8.03836538,2.93563636 C8.15426923,2.91368182 8.28121154,2.99836364 8.3025,3.12381818 L8.64863462,5.2095 C8.66992308,5.33417045 8.58555769,5.45256818 8.46019231,5.47295455 C8.44757692,5.47452273 8.43338462,5.47609091 8.42234615,5.47609091 L8.42234615,5.47609091 Z" id="Shape"></path>
                    <path d="M9.34248077,5.28477273 C9.23288462,5.28477273 9.13511538,5.20479545 9.11619231,5.09267045 L8.77557692,3.044625 C8.75586538,2.92073864 8.84101923,2.80234091 8.96559615,2.78273864 C9.08859615,2.76235227 9.21001923,2.84625 9.22973077,2.97092045 L9.57034615,5.01818182 C9.59005769,5.14285227 9.50648077,5.26046591 9.38190385,5.28163636 C9.36771154,5.28320455 9.35588462,5.28477273 9.34248077,5.28477273 L9.34248077,5.28477273 Z" id="Shape"></path>
                    <path d="M10.2436923,4.97740909 C10.1333077,4.97740909 10.0355385,4.89664773 10.0174038,4.78452273 L9.70359615,2.89329545 C9.68230769,2.768625 9.76746154,2.65101136 9.89361538,2.62984091 C10.0158269,2.61023864 10.1364615,2.69413636 10.1569615,2.81802273 L10.4707692,4.71081818 C10.4912692,4.83470455 10.4069038,4.95310227 10.2823269,4.97348864 C10.2689231,4.97584091 10.2570962,4.97740909 10.2436923,4.97740909 L10.2436923,4.97740909 Z" id="Shape"></path>
                    <path d="M11.1614615,4.75943182 C11.0510769,4.75943182 10.9533077,4.67945455 10.9351731,4.56811364 L10.6308269,2.74118182 C10.6095385,2.61572727 10.6931154,2.49732955 10.8192692,2.47772727 C10.9414808,2.45342045 11.0629038,2.54045455 11.0841923,2.665125 L11.3893269,4.49284091 C11.4098269,4.61672727 11.32625,4.735125 11.2000962,4.75629545 C11.1866923,4.75786364 11.1748654,4.75943182 11.1614615,4.75943182 L11.1614615,4.75943182 Z" id="Shape"></path>
                    <path d="M12.0666154,4.46539773 C11.9562308,4.46539773 11.8576731,4.38698864 11.8403269,4.27407955 L11.5580577,2.5875 C11.5383462,2.46282955 11.6235,2.34443182 11.7480769,2.32482955 C11.8679231,2.30130682 11.9925,2.38755682 12.0122115,2.51301136 L12.2929038,4.200375 C12.3126154,4.32426136 12.22825,4.44265909 12.1036731,4.46304545 C12.0918462,4.46539773 12.0792308,4.46539773 12.0666154,4.46539773 L12.0666154,4.46539773 Z" id="Shape"></path>
                    <path d="M12.96625,4.148625 C12.8550769,4.148625 12.7580962,4.06864773 12.7391731,3.95730682 L12.4119615,1.98139773 C12.3906731,1.85751136 12.4758269,1.73911364 12.6019808,1.71794318 C12.7210385,1.69677273 12.8448269,1.78223864 12.8653269,1.906125 L13.1933269,3.88203409 C13.2138269,4.00748864 13.1294615,4.12510227 13.0048846,4.14548864 C12.9914808,4.14705682 12.9788654,4.148625 12.96625,4.148625 L12.96625,4.148625 Z" id="Shape"></path>
                </g>
                <g id="Group" transform="translate(20.500000, 53.534091)" fill="#000000" sketch:type="MSShapeGroup">
                    <path d="M10.5425192,5.69328409 C3.89105769,5.69328409 0.529057692,3.89457955 0.372942308,3.80911364 C0.277538462,3.75736364 0.224711538,3.65151136 0.238903846,3.54409091 L0.557442308,1.25376136 C0.577153846,1.11027273 0.708038462,1.009125 0.854692308,1.03107955 C0.998192308,1.05068182 1.09911538,1.18240909 1.07782692,1.32511364 L0.786096154,3.43039773 C1.62423077,3.82636364 5.75892308,5.55685227 13.0364231,5.08796591 L13.3265769,3.01090909 C13.3447115,2.86742045 13.4795385,2.76548864 13.62225,2.78822727 C13.7673269,2.80704545 13.8674615,2.93955682 13.8461731,3.08304545 L13.5268462,5.37180682 C13.5102885,5.494125 13.4093654,5.58743182 13.2863654,5.59605682 C12.3165577,5.66348864 11.4019423,5.69328409 10.5425192,5.69328409 L10.5425192,5.69328409 Z" id="Shape"></path>
                    <path d="M11.5509615,3.69228409 C10.3193846,3.69228409 8.71723077,3.56447727 7.03938462,3.33395455 C5.32132692,3.096375 3.71838462,2.77960227 2.52465385,2.43930682 C0.716711538,1.923375 0.515653846,1.55014773 0.556653846,1.25297727 C0.598442308,0.951886364 0.902788462,0.642954545 2.85107692,0.642954545 C4.08265385,0.642954545 5.68480769,0.769977273 7.36344231,1.00128409 C8.47280769,1.15261364 13.9991346,1.97042045 13.8461731,3.08069318 C13.8051731,3.38256818 13.49925,3.69228409 11.5509615,3.69228409 L11.5509615,3.69228409 Z M1.13775,1.33609091 C1.56982692,1.68344318 3.75859615,2.35384091 7.11192308,2.81567045 C8.76690385,3.04305682 10.3438269,3.16851136 11.5509615,3.16851136 C12.6760962,3.16851136 13.1081731,3.06109091 13.2674423,2.99836364 C12.8322115,2.65101136 10.6442308,1.98061364 7.29169231,1.51878409 C5.63671154,1.29218182 4.05978846,1.16594318 2.85186538,1.16594318 C1.72751923,1.16594318 1.29465385,1.27336364 1.13775,1.33609091 L1.13775,1.33609091 Z" id="Shape"></path>
                    <path d="M1.31673077,4.183125 C1.30648077,4.183125 1.29623077,4.18234091 1.28440385,4.18077273 C1.15982692,4.16430682 1.07073077,4.04826136 1.08886538,3.92280682 L1.37980769,1.82693182 C1.39636538,1.70304545 1.50911538,1.61522727 1.63842308,1.63247727 C1.76457692,1.64894318 1.85209615,1.76498864 1.83475,1.89044318 L1.54459615,3.98631818 C1.52882692,4.10001136 1.43026923,4.183125 1.31673077,4.183125 L1.31673077,4.183125 Z" id="Shape"></path>
                    <path d="M2.24001923,4.36503409 C2.22898077,4.36503409 2.21951923,4.36425 2.20848077,4.36268182 C2.08232692,4.34621591 1.99480769,4.23017045 2.01215385,4.10393182 L2.2755,2.21584091 C2.29205769,2.09038636 2.40559615,2.00021591 2.53411538,2.01981818 C2.66105769,2.03628409 2.74857692,2.15311364 2.73123077,2.27778409 L2.46867308,4.16744318 C2.45132692,4.28192045 2.35276923,4.36503409 2.24001923,4.36503409 L2.24001923,4.36503409 Z" id="Shape"></path>
                    <path d="M3.14280769,4.69984091 C3.13176923,4.69984091 3.12151923,4.69905682 3.11048077,4.69670455 C2.98432692,4.68023864 2.89680769,4.56419318 2.91336538,4.43952273 L3.17986538,2.53810227 C3.19721154,2.41343182 3.31153846,2.32326136 3.43848077,2.34286364 C3.56542308,2.36011364 3.65215385,2.47615909 3.63559615,2.60082955 L3.36988462,4.50225 C3.35411538,4.61751136 3.25555769,4.69984091 3.14280769,4.69984091 L3.14280769,4.69984091 Z" id="Shape"></path>
                    <path d="M4.07476923,4.82607955 C4.06451923,4.82607955 4.05426923,4.82529545 4.04244231,4.82372727 C3.91786538,4.80726136 3.82876923,4.69121591 3.84690385,4.56654545 L4.11103846,2.66590909 C4.12759615,2.54123864 4.24428846,2.45028409 4.36965385,2.47067045 C4.49659615,2.48713636 4.58411538,2.60318182 4.56676923,2.72863636 L4.30263462,4.62927273 C4.28765385,4.74296591 4.18830769,4.82607955 4.07476923,4.82607955 L4.07476923,4.82607955 Z" id="Shape"></path>
                    <path d="M4.97834615,5.149125 C4.96730769,5.149125 4.95705769,5.14834091 4.94680769,5.14677273 C4.81986538,5.13030682 4.73234615,5.01426136 4.74969231,4.88880682 L5.04142308,2.79293182 C5.05798077,2.66826136 5.17230769,2.578875 5.30003846,2.59847727 C5.42698077,2.61494318 5.51528846,2.73020455 5.49715385,2.85644318 L5.20542308,4.95153409 C5.18965385,5.06679545 5.09109615,5.149125 4.97834615,5.149125 L4.97834615,5.149125 Z" id="Shape"></path>
                    <path d="M5.91030769,5.27771591 C5.89848077,5.27771591 5.88901923,5.27693182 5.87798077,5.27536364 C5.75261538,5.25889773 5.66430769,5.14285227 5.68165385,5.01739773 L5.97259615,2.92309091 C5.98994231,2.79842045 6.10505769,2.70589773 6.232,2.72785227 C6.35815385,2.74431818 6.44646154,2.86036364 6.42911538,2.98581818 L6.13738462,5.080125 C6.12240385,5.19460227 6.02384615,5.27771591 5.91030769,5.27771591 L5.91030769,5.27771591 Z" id="Shape"></path>
                    <path d="M6.84305769,5.40709091 C6.83201923,5.40709091 6.82255769,5.40630682 6.80994231,5.40473864 C6.68457692,5.38827273 6.59626923,5.27222727 6.61361538,5.14677273 L6.90534615,3.05089773 C6.92269231,2.92544318 7.03780769,2.83527273 7.16475,2.854875 C7.29090385,2.872125 7.37842308,2.98817045 7.36107692,3.113625 L7.07013462,5.21028409 C7.05357692,5.32397727 6.95501923,5.40709091 6.84305769,5.40709091 L6.84305769,5.40709091 Z" id="Shape"></path>
                    <path d="M7.77344231,5.53489773 C7.76240385,5.53489773 7.75294231,5.53411364 7.74190385,5.53254545 C7.61496154,5.51529545 7.52744231,5.40003409 7.54478846,5.27457955 L7.83573077,3.17948864 C7.85307692,3.05403409 7.96976923,2.96386364 8.09592308,2.98425 C8.22128846,3.00071591 8.30959615,3.11676136 8.29146154,3.24221591 L8.00051923,5.33730682 C7.98475,5.451 7.88619231,5.53489773 7.77344231,5.53489773 L7.77344231,5.53489773 Z" id="Shape"></path>
                    <path d="M8.71013462,5.6235 C8.69909615,5.6235 8.68963462,5.6235 8.67859615,5.62193182 C8.55165385,5.60546591 8.46413462,5.48863636 8.48148077,5.36318182 L8.76848077,3.30807955 C8.78503846,3.182625 8.89621154,3.09088636 9.02709615,3.11205682 C9.15325,3.12930682 9.24076923,3.24535227 9.22421154,3.37080682 L8.93721154,5.42590909 C8.92065385,5.54038636 8.82209615,5.6235 8.71013462,5.6235 L8.71013462,5.6235 Z" id="Shape"></path>
                    <path d="M9.66417308,5.59448864 C9.65392308,5.59448864 9.64367308,5.59448864 9.63184615,5.59292045 C9.50648077,5.57567045 9.41817308,5.459625 9.43551923,5.33495455 L9.69965385,3.43667045 C9.717,3.31121591 9.82975,3.21947727 9.95984615,3.24143182 C10.0844231,3.25868182 10.1735192,3.37394318 10.1553846,3.49939773 L9.89125,5.39768182 C9.87548077,5.511375 9.77692308,5.59448864 9.66417308,5.59448864 L9.66417308,5.59448864 Z" id="Shape"></path>
                    <path d="M10.6040192,5.65878409 C10.5929808,5.65878409 10.5827308,5.65878409 10.5716923,5.65643182 C10.4455385,5.63918182 10.3580192,5.52392045 10.3745769,5.39846591 L10.6308269,3.56369318 C10.6473846,3.43902273 10.7625,3.34806818 10.8902308,3.36923864 C11.0163846,3.38570455 11.1046923,3.50175 11.0865577,3.62642045 L10.8310962,5.46119318 C10.8153269,5.57567045 10.7167692,5.65878409 10.6040192,5.65878409 L10.6040192,5.65878409 Z" id="Shape"></path>
                    <path d="M11.5556923,5.64623864 C11.5454423,5.64623864 11.5351923,5.64623864 11.5249423,5.64388636 C11.398,5.62742045 11.3096923,5.511375 11.3278269,5.38592045 L11.5612115,3.69071591 C11.5785577,3.56526136 11.6999808,3.47665909 11.8214038,3.49469318 C11.9467692,3.51115909 12.0350769,3.62720455 12.0177308,3.75265909 L11.7827692,5.44864773 C11.7677885,5.56390909 11.6692308,5.64623864 11.5556923,5.64623864 L11.5556923,5.64623864 Z" id="Shape"></path>
                    <path d="M12.5097308,5.60860227 C12.4986923,5.60860227 12.4876538,5.60781818 12.4766154,5.60625 C12.3520385,5.58978409 12.2637308,5.47295455 12.2810769,5.34828409 L12.5586154,3.36453409 C12.5751731,3.23907955 12.6942308,3.14734091 12.8180192,3.16929545 C12.9433846,3.18654545 13.0316923,3.30259091 13.0135577,3.42726136 L12.7368077,5.41101136 C12.7218269,5.52627273 12.6232692,5.60860227 12.5097308,5.60860227 L12.5097308,5.60860227 Z" id="Shape"></path>
                </g>
                <g id="Group" transform="translate(12.615385, 51.181818)" fill="#000000" sketch:type="MSShapeGroup">
                    <path d="M4.52340385,3.3465 C1.83080769,3.3465 0.378461538,2.81802273 0.287,2.78352273 C0.212884615,2.75529545 0.162423077,2.68472727 0.161634615,2.60475 L0.15375,0.905625 C0.152173077,0.798988636 0.238115385,0.713522727 0.344557692,0.712738636 L0.346923077,0.712738636 C0.452576923,0.712738636 0.538519231,0.797420455 0.539307692,0.904056818 L0.548769231,2.46361364 C1.19925,2.66590909 4.38936538,3.49390909 9.63263462,2.39775 L9.62475,0.854659091 C9.62238462,0.748022727 9.70911538,0.662556818 9.81634615,0.660988636 L9.81713462,0.660988636 C9.92436538,0.660988636 10.0095192,0.746454545 10.0095192,0.852306818 L10.0197692,2.55143182 C10.0205577,2.64238636 9.95748077,2.72079545 9.86759615,2.74039773 C7.74584615,3.19595455 5.95998077,3.3465 4.52340385,3.3465 L4.52340385,3.3465 Z" id="Shape"></path>
                    <path d="M4.90344231,1.74538636 C3.79013462,1.74538636 0.156903846,1.68501136 0.154538462,0.906409091 C0.154538462,0.849170455 0.171096154,0.761352273 0.25625,0.674318182 C0.693057692,0.234443182 2.99142308,0.0266590909 5.07690385,0.0156818182 L5.25903846,0.0156818182 C6.37155769,0.0156818182 10.0055769,0.0752727273 10.0095192,0.853090909 C10.01425,1.67873864 5.90873077,1.74068182 5.08557692,1.74460227 L4.90344231,1.74538636 L4.90344231,1.74538636 Z M0.578730769,0.904056818 C0.909884615,1.10792045 2.47576923,1.36039773 4.90265385,1.36039773 L5.08321154,1.35961364 C7.58026923,1.34706818 9.24234615,1.06793182 9.58375,0.855443182 C9.25023077,0.650011364 7.68434615,0.398318182 5.25825,0.398318182 L5.07769231,0.399102273 C2.583,0.413215909 0.920923077,0.692352273 0.578730769,0.904056818 L0.578730769,0.904056818 Z" id="Shape"></path>
                    <path id="Shape" d="M0.989519231,2.958375 C0.896480769,2.958375 0.820788462,2.88388636 0.820788462,2.79136364 L0.811326923,1.23807955 C0.80975,1.14555682 0.885442308,1.0695 0.978480769,1.06871591 C1.07309615,1.07185227 1.14878846,1.14320455 1.14957692,1.23651136 L1.15903846,2.78979545 C1.15903846,2.88310227 1.08255769,2.958375 0.989519231,2.958375 L0.989519231,2.958375 L0.989519231,2.958375 Z"></path>
                    <path id="Shape" d="M1.67942308,2.99444318 C1.58638462,2.99444318 1.51069231,2.91995455 1.51069231,2.82743182 L1.50359615,1.42704545 C1.50201923,1.33452273 1.57771154,1.25846591 1.67075,1.25846591 L1.67232692,1.25846591 C1.76457692,1.25846591 1.84026923,1.33295455 1.84105769,1.42547727 L1.84894231,2.82586364 C1.84894231,2.91838636 1.77403846,2.99365909 1.681,2.99444318 L1.67942308,2.99444318 L1.67942308,2.99444318 Z"></path>
                    <path id="Shape" d="M2.37169231,3.14498864 C2.27786538,3.14498864 2.20217308,3.0705 2.20217308,2.97719318 L2.19507692,1.56818182 C2.19428846,1.474875 2.26919231,1.39881818 2.36223077,1.39803409 L2.36301923,1.39803409 C2.45605769,1.39803409 2.53253846,1.47330682 2.53332692,1.56582955 L2.54042308,2.975625 C2.54042308,3.06814773 2.46551923,3.14420455 2.37169231,3.14498864 L2.37169231,3.14498864 L2.37169231,3.14498864 Z"></path>
                    <path id="Shape" d="M3.06317308,3.14106818 C2.96934615,3.14106818 2.89365385,3.06657955 2.89365385,2.97405682 L2.88576923,1.56347727 C2.88498077,1.47095455 2.96146154,1.39489773 3.0545,1.39489773 L3.05528846,1.39489773 C3.14753846,1.39489773 3.22323077,1.47017045 3.22401923,1.56190909 L3.23269231,2.97248864 C3.23269231,3.06422727 3.15621154,3.14106818 3.06317308,3.14106818 L3.06317308,3.14106818 L3.06317308,3.14106818 Z"></path>
                    <path id="Shape" d="M3.75307692,3.28220455 C3.66082692,3.28220455 3.58434615,3.20771591 3.58355769,3.11519318 L3.57725,1.561125 C3.57646154,1.46860227 3.65136538,1.39254545 3.74440385,1.39254545 L3.74598077,1.39254545 C3.83823077,1.39254545 3.91392308,1.46625 3.91471154,1.55955682 L3.92259615,3.113625 C3.92338462,3.20614773 3.84848077,3.28220455 3.75465385,3.28220455 C3.75465385,3.28220455 3.75465385,3.28220455 3.75307692,3.28220455 L3.75307692,3.28220455 Z"></path>
                    <path id="Shape" d="M4.44455769,3.27906818 C4.35230769,3.27906818 4.27661538,3.20379545 4.27582692,3.11127273 L4.26794231,1.55720455 C4.26715385,1.46468182 4.34284615,1.388625 4.43588462,1.38784091 L4.43667308,1.38784091 C4.52892308,1.38784091 4.60461538,1.46311364 4.60619231,1.55642045 L4.61407692,3.10970455 C4.61486538,3.20222727 4.52971154,3.28769318 4.44455769,3.27906818 L4.44455769,3.27906818 Z"></path>
                    <path id="Shape" d="M5.13603846,3.27436364 C5.043,3.27436364 4.96730769,3.19909091 4.96730769,3.10735227 L4.95863462,1.55406818 C4.95863462,1.46154545 5.03432692,1.38470455 5.12657692,1.38470455 L5.12815385,1.38470455 C5.22119231,1.38470455 5.29688462,1.45919318 5.29688462,1.55171591 L5.30555769,3.10578409 C5.30555769,3.19752273 5.22986538,3.27357955 5.13603846,3.27436364 L5.13603846,3.27436364 L5.13603846,3.27436364 Z"></path>
                    <path id="Shape" d="M5.82673077,3.27044318 C5.73369231,3.27044318 5.65721154,3.19595455 5.65721154,3.10343182 L5.65011538,1.55014773 C5.64853846,1.457625 5.72423077,1.38156818 5.81805769,1.38156818 L5.81884615,1.38156818 C5.91109615,1.38156818 5.98678846,1.45605682 5.98757692,1.54857955 L5.99546154,3.10107955 C5.99546154,3.19438636 5.92134615,3.26965909 5.82673077,3.27044318 L5.82673077,3.27044318 L5.82673077,3.27044318 Z"></path>
                    <path id="Shape" d="M6.51663462,3.23829545 C6.42438462,3.23829545 6.34790385,3.16380682 6.34711538,3.07128409 L6.34001923,1.54701136 C6.34001923,1.45370455 6.41413462,1.37843182 6.50796154,1.37764773 L6.50875,1.37764773 C6.60178846,1.37764773 6.67748077,1.45213636 6.67826923,1.54465909 L6.68536538,3.06893182 C6.68615385,3.16223864 6.61125,3.23751136 6.51821154,3.23829545 L6.51663462,3.23829545 L6.51663462,3.23829545 Z"></path>
                    <path id="Shape" d="M7.20811538,3.11832955 C7.11507692,3.11832955 7.03938462,3.04384091 7.03938462,2.95131818 L7.03071154,1.543875 C7.02992308,1.45056818 7.10561538,1.37451136 7.19944231,1.37372727 L7.20101923,1.37372727 C7.29248077,1.37372727 7.36896154,1.449 7.36975,1.54152273 L7.37684615,2.94975 C7.37605769,3.04227273 7.30115385,3.11832955 7.20811538,3.11832955 L7.20811538,3.11832955 L7.20811538,3.11832955 Z"></path>
                    <path id="Shape" d="M7.89801923,3.06657955 C7.80576923,3.06657955 7.73007692,2.99209091 7.72928846,2.89956818 L7.72298077,1.53917045 C7.72140385,1.44586364 7.79788462,1.37059091 7.89092308,1.36980682 C7.97686538,1.35020455 8.06044231,1.44429545 8.06123077,1.53681818 L8.06675,2.89721591 C8.06832692,2.99052273 7.99342308,3.06579545 7.90038462,3.06657955 L7.89801923,3.06657955 L7.89801923,3.06657955 Z"></path>
                    <path id="Shape" d="M8.59028846,2.958375 C8.49725,2.958375 8.42076923,2.88388636 8.42076923,2.79136364 L8.41367308,1.53368182 C8.41209615,1.440375 8.48778846,1.36510227 8.58082692,1.36431818 L8.58240385,1.36431818 C8.67544231,1.36431818 8.75113462,1.43880682 8.75192308,1.53132955 L8.75901923,2.78901136 C8.75823077,2.88310227 8.68332692,2.958375 8.59028846,2.958375 L8.59028846,2.958375 L8.59028846,2.958375 Z"></path>
                    <path id="Shape" d="M9.27940385,2.83292045 C9.18715385,2.83292045 9.11067308,2.75764773 9.10988462,2.66590909 L9.10278846,1.19338636 C9.102,1.10086364 9.17769231,1.02480682 9.27073077,1.02402273 L9.27151923,1.02402273 C9.36455769,1.02402273 9.44025,1.09929545 9.44103846,1.19103409 L9.44813462,2.66355682 C9.44813462,2.75686364 9.37323077,2.83213636 9.27940385,2.83292045 L9.27940385,2.83292045 L9.27940385,2.83292045 Z"></path>
                </g>
                <g id="Group" transform="translate(23.653846, 48.829545)" fill="#000000" sketch:type="MSShapeGroup">
                    <path d="M10.0978269,4.71395455 L10.0923077,4.71395455 C3.85478846,4.55556818 0.896480769,2.59063636 0.774269231,2.50752273 C0.708038462,2.46204545 0.6765,2.38206818 0.694634615,2.30365909 L1.08886538,0.651579545 C1.11173077,0.547295455 1.21501923,0.483 1.32146154,0.508090909 C1.42553846,0.532397727 1.48861538,0.635897727 1.46417308,0.739397727 L1.10384615,2.25896591 C1.68809615,2.60710227 4.58963462,4.16195455 9.94723077,4.32582955 L10.3036154,2.82664773 C10.3272692,2.72236364 10.4274038,2.65806818 10.5362115,2.68315909 C10.6402885,2.70746591 10.7041538,2.81096591 10.6812885,2.91525 L10.2870577,4.56576136 C10.2649808,4.65279545 10.1877115,4.71395455 10.0978269,4.71395455 L10.0978269,4.71395455 Z" id="Shape"></path>
                    <path d="M9.75405769,3.24378409 C8.84969231,3.24378409 7.32796154,3.01247727 5.68323077,2.62356818 C3.65373077,2.14605682 1.46180769,1.42626136 1.13617308,0.900136364 C1.07151923,0.796636364 1.07467308,0.70725 1.08807692,0.650795455 C1.14248077,0.420272727 1.41923077,0.320693182 2.01373077,0.320693182 C2.91809615,0.320693182 4.43982692,0.553568182 6.08376923,0.941693182 C6.88484615,1.13065909 10.8689423,2.11155682 10.6789231,2.91525 C10.6237308,3.14577273 10.3469808,3.24378409 9.75405769,3.24378409 L9.75405769,3.24378409 Z M1.50675,0.751943182 C1.79848077,1.035 3.35253846,1.67873864 5.77232692,2.25034091 C7.36580769,2.62592045 8.88990385,2.85879545 9.75405769,2.85879545 C10.0410577,2.85879545 10.1885,2.83292045 10.2618269,2.81175 C9.96851923,2.527125 8.41525,1.88417045 5.99467308,1.31413636 C4.40276923,0.938556818 2.87788462,0.704113636 2.01451923,0.704113636 C1.72594231,0.704113636 1.58007692,0.730772727 1.50675,0.751943182 L1.50675,0.751943182 Z" id="Shape"></path>
                    <path d="M1.45392308,2.84781818 C1.43973077,2.84781818 1.42790385,2.84625 1.41371154,2.84389773 C1.32382692,2.82194318 1.26626923,2.73098864 1.28834615,2.64003409 L1.64946154,1.12830682 C1.66996154,1.03813636 1.75984615,0.982465909 1.85288462,1.00363636 C1.94276923,1.02402273 1.99953846,1.11576136 1.97825,1.20593182 L1.61713462,2.71844318 C1.59978846,2.7945 1.52882692,2.84781818 1.45392308,2.84781818 L1.45392308,2.84781818 Z" id="Shape"></path>
                    <path d="M2.11544231,3.04384091 C2.10282692,3.04384091 2.09021154,3.04227273 2.07680769,3.03992045 C1.98613462,3.01796591 1.92936538,2.92701136 1.95144231,2.83605682 L2.2755,1.47409091 C2.29678846,1.38470455 2.38903846,1.32825 2.47971154,1.34942045 C2.57038462,1.37059091 2.62715385,1.46154545 2.60507692,1.5525 L2.28101923,2.91446591 C2.26130769,2.99130682 2.19271154,3.04384091 2.11544231,3.04384091 L2.11544231,3.04384091 Z" id="Shape"></path>
                    <path d="M2.75251923,3.35198864 C2.73911538,3.35198864 2.72728846,3.35042045 2.71309615,3.34728409 C2.62321154,3.32611364 2.56565385,3.23515909 2.58851923,3.14420455 L2.91415385,1.77282955 C2.93544231,1.68265909 3.02532692,1.62542045 3.11836538,1.64815909 C3.20903846,1.66932955 3.26580769,1.76106818 3.24373077,1.85123864 L2.91730769,3.22182955 C2.89838462,3.29945455 2.83057692,3.35198864 2.75251923,3.35198864 L2.75251923,3.35198864 Z" id="Shape"></path>
                    <path d="M3.42507692,3.510375 C3.41246154,3.510375 3.39905769,3.50880682 3.38644231,3.50567045 C3.29498077,3.4845 3.23821154,3.39354545 3.26028846,3.303375 L3.5875,1.932 C3.60957692,1.84261364 3.69946154,1.785375 3.79171154,1.80732955 C3.88238462,1.8285 3.93994231,1.91945455 3.91707692,2.009625 L3.58986538,3.38178409 C3.57094231,3.45784091 3.50076923,3.510375 3.42507692,3.510375 L3.42507692,3.510375 Z" id="Shape"></path>
                    <path d="M4.06373077,3.80911364 C4.04953846,3.80911364 4.03771154,3.80832955 4.02351923,3.80519318 C3.93363462,3.78402273 3.87607692,3.69228409 3.89815385,3.60132955 L4.25926923,2.09038636 C4.27976923,2.001 4.37201923,1.94376136 4.46269231,1.96571591 C4.55257692,1.98688636 4.60934615,2.07784091 4.58805769,2.16879545 L4.22694231,3.67973864 C4.21038462,3.75736364 4.13942308,3.80911364 4.06373077,3.80911364 L4.06373077,3.80911364 Z" id="Shape"></path>
                    <path d="M4.73628846,3.96828409 C4.72288462,3.96828409 4.70948077,3.96671591 4.69686538,3.96357955 C4.60619231,3.94240909 4.54942308,3.85145455 4.57071154,3.76128409 L4.93103846,2.24798864 C4.95232692,2.15860227 5.043,2.10371591 5.13603846,2.12410227 C5.22513462,2.14527273 5.28190385,2.23622727 5.26061538,2.32639773 L4.90028846,3.83969318 C4.88136538,3.91575 4.81198077,3.96828409 4.73628846,3.96828409 L4.73628846,3.96828409 Z" id="Shape"></path>
                    <path d="M5.40805769,4.12667045 C5.39544231,4.12667045 5.38203846,4.12510227 5.36942308,4.12196591 C5.27796154,4.10079545 5.22119231,4.00905682 5.24405769,3.91888636 L5.60438462,2.40715909 C5.62567308,2.31855682 5.71713462,2.26288636 5.80780769,2.28327273 C5.89926923,2.30444318 5.95603846,2.39539773 5.93396154,2.48556818 L5.57284615,3.99729545 C5.55471154,4.07413636 5.48532692,4.12667045 5.40805769,4.12667045 L5.40805769,4.12667045 Z" id="Shape"></path>
                    <path d="M6.08140385,4.28505682 C6.06721154,4.28505682 6.05459615,4.28348864 6.04119231,4.28035227 C5.95051923,4.25918182 5.89375,4.16822727 5.91503846,4.07805682 L6.27615385,2.56632955 C6.29823077,2.47615909 6.38890385,2.41892045 6.48036538,2.440875 C6.57103846,2.46204545 6.62780769,2.55378409 6.60494231,2.64473864 L6.24461538,4.15568182 C6.22648077,4.23252273 6.15709615,4.28505682 6.08140385,4.28505682 L6.08140385,4.28505682 Z" id="Shape"></path>
                    <path d="M6.75790385,4.416 C6.74607692,4.416 6.73188462,4.41521591 6.71926923,4.41129545 C6.62780769,4.39090909 6.57103846,4.29995455 6.59390385,4.209 L6.94792308,2.72393182 C6.96921154,2.63376136 7.06067308,2.57809091 7.15213462,2.60004545 C7.24201923,2.62121591 7.29878846,2.71217045 7.2775,2.80234091 L6.92269231,4.286625 C6.90455769,4.36346591 6.83517308,4.416 6.75790385,4.416 L6.75790385,4.416 Z" id="Shape"></path>
                    <path d="M7.45963462,4.46069318 C7.44544231,4.46069318 7.43282692,4.459125 7.41942308,4.45677273 C7.32875,4.43481818 7.27198077,4.34386364 7.29326923,4.25369318 L7.62048077,2.88310227 C7.64176923,2.79293182 7.73244231,2.73726136 7.82548077,2.75921591 C7.91457692,2.78038636 7.97213462,2.87134091 7.95005769,2.96151136 L7.62284615,4.33210227 C7.6055,4.40894318 7.53532692,4.46069318 7.45963462,4.46069318 L7.45963462,4.46069318 Z" id="Shape"></path>
                    <path d="M8.14165385,4.57360227 C8.12903846,4.57360227 8.11563462,4.57203409 8.10301923,4.56968182 C8.01155769,4.54772727 7.95478846,4.45677273 7.97765385,4.36581818 L8.29382692,3.04148864 C8.31590385,2.95131818 8.40578846,2.89407955 8.49725,2.91760227 C8.58871154,2.93877273 8.64548077,3.02972727 8.62261538,3.11989773 L8.30644231,4.44422727 C8.28830769,4.52185227 8.21892308,4.57360227 8.14165385,4.57360227 L8.14165385,4.57360227 Z" id="Shape"></path>
                    <path d="M8.83944231,4.63084091 C8.82603846,4.63084091 8.81263462,4.62927273 8.80001923,4.62613636 C8.70855769,4.60496591 8.65178846,4.51322727 8.67386538,4.42227273 L8.96559615,3.19909091 C8.98688462,3.10970455 9.07834615,3.05246591 9.16980769,3.07442045 C9.25969231,3.09559091 9.31646154,3.18654545 9.29438462,3.27671591 L9.00344231,4.50068182 C8.98530769,4.57909091 8.91592308,4.63084091 8.83944231,4.63084091 L8.83944231,4.63084091 Z" id="Shape"></path>
                    <path d="M9.53880769,4.66926136 C9.52540385,4.66926136 9.51357692,4.66769318 9.49938462,4.66534091 C9.4095,4.64338636 9.35273077,4.55243182 9.37401923,4.46226136 L9.717,3.03051136 C9.73828846,2.94034091 9.82738462,2.88467045 9.92042308,2.906625 C10.0118846,2.92779545 10.0686538,3.01875 10.0465769,3.10892045 L9.70359615,4.54067045 C9.68467308,4.61907955 9.6145,4.66926136 9.53880769,4.66926136 L9.53880769,4.66926136 Z" id="Shape"></path>
                </g>
                <g id="Group" transform="translate(5.519231, 21.386364)" fill="#000000" sketch:type="MSShapeGroup">
                    <path d="M1.40425,5.60546591 C1.34984615,5.60546591 1.29859615,5.57723864 1.27178846,5.53019318 L0.578730769,4.36581818 C0.533788462,4.29368182 0.559019231,4.19880682 0.631557692,4.15646591 C0.704884615,4.11334091 0.800288462,4.13686364 0.842865385,4.20978409 L1.47994231,5.27928409 C2.009,5.15696591 4.53523077,4.45520455 7.69853846,1.60503409 C7.25069231,0.849954545 7.07013462,0.548079545 7.07013462,0.548079545 C7.02598077,0.475943182 7.05121154,0.381852273 7.12296154,0.337943182 C7.19471154,0.295602273 7.29011538,0.319125 7.33426923,0.391261364 C7.33426923,0.391261364 7.53138462,0.721363636 8.02653846,1.55563636 C8.06438462,1.61836364 8.05255769,1.69755682 7.99736538,1.74695455 C4.33417308,5.08482955 1.54696154,5.58272727 1.42948077,5.60232955 C1.42080769,5.60468182 1.41213462,5.60546591 1.40425,5.60546591 L1.40425,5.60546591 Z" id="Shape"></path>
                    <path d="M0.868096154,4.49754545 C0.726961538,4.49754545 0.629980769,4.45363636 0.579519231,4.36581818 C0.555076923,4.32661364 0.531423077,4.25839773 0.556653846,4.16509091 C0.678076923,3.68993182 2.22267308,2.59926136 3.60484615,1.78772727 C5.15417308,0.875045455 6.53792308,0.262670455 7.04726923,0.262670455 C7.18682692,0.262670455 7.28301923,0.306579545 7.33426923,0.393613636 C7.42415385,0.544159091 7.40128846,0.791147727 6.54186538,1.47644318 C5.97496154,1.92807955 5.18334615,2.46047727 4.31051923,2.97405682 C2.75882692,3.88517045 1.37507692,4.49754545 0.868096154,4.49754545 L0.868096154,4.49754545 Z M7.04017308,0.568465909 C6.65067308,0.574738636 5.40411538,1.08361364 3.76096154,2.05118182 C2.05630769,3.05246591 1.02657692,3.90634091 0.873615385,4.19096591 C1.25917308,4.18626136 2.50573077,3.67738636 4.15361538,2.70981818 C5.85511538,1.70696591 6.88484615,0.853875 7.04017308,0.568465909 L7.04017308,0.568465909 Z" id="Shape"></path>
                    <path d="M1.91438462,5.46276136 C1.86865385,5.46276136 1.8245,5.43923864 1.79926923,5.39768182 L1.16534615,4.33288636 C1.1275,4.26859091 1.14878846,4.18704545 1.21344231,4.14940909 C1.27809615,4.11255682 1.35930769,4.13294318 1.39715385,4.19645455 L2.03186538,5.26203409 C2.06813462,5.32554545 2.04763462,5.407875 1.98376923,5.44472727 C1.96169231,5.45648864 1.93725,5.46276136 1.91438462,5.46276136 L1.91438462,5.46276136 Z" id="Shape"></path>
                    <path d="M2.40401923,5.21106818 C2.3575,5.21106818 2.31334615,5.18754545 2.28811538,5.14598864 L1.71726923,4.18547727 C1.67863462,4.12118182 1.70071154,4.03963636 1.76536538,4.002 C1.82923077,3.96436364 1.91201923,3.98553409 1.94828846,4.04904545 L2.52071154,5.00877273 C2.55776923,5.07306818 2.53648077,5.15461364 2.47340385,5.19225 C2.45132692,5.20557955 2.42688462,5.21106818 2.40401923,5.21106818 L2.40401923,5.21106818 Z" id="Shape"></path>
                    <path d="M2.94096154,5.037 C2.89444231,5.037 2.84871154,5.01347727 2.82426923,4.97192045 L2.24948077,4.00670455 C2.21242308,3.94319318 2.23292308,3.86086364 2.29757692,3.82322727 C2.36065385,3.786375 2.44344231,3.80676136 2.48128846,3.87027273 L3.05607692,4.83548864 C3.09392308,4.899 3.07263462,4.98132955 3.00876923,5.01896591 C2.98748077,5.03151136 2.96382692,5.037 2.94096154,5.037 L2.94096154,5.037 Z" id="Shape"></path>
                    <path d="M3.41403846,4.75943182 C3.36751923,4.75943182 3.32257692,4.73590909 3.29813462,4.69356818 L2.72334615,3.72756818 C2.6855,3.66327273 2.70678846,3.58172727 2.77065385,3.54409091 C2.83451923,3.50645455 2.91730769,3.52684091 2.95436538,3.59113636 L3.52915385,4.55713636 C3.567,4.62143182 3.54571154,4.70297727 3.48263462,4.74061364 C3.46134615,4.75315909 3.43690385,4.75943182 3.41403846,4.75943182 L3.41403846,4.75943182 Z" id="Shape"></path>
                    <path d="M3.94625,4.58065909 C3.89973077,4.58065909 3.85557692,4.55713636 3.83034615,4.51557955 L3.19563462,3.45 C3.15936538,3.38570455 3.17986538,3.30415909 3.24373077,3.26652273 C3.30838462,3.22810227 3.39038462,3.25005682 3.42901923,3.31356818 L4.06215385,4.37914773 C4.1,4.44344318 4.07871154,4.52498864 4.01484615,4.562625 C3.99276923,4.57438636 3.96832692,4.58065909 3.94625,4.58065909 L3.94625,4.58065909 Z" id="Shape"></path>
                    <path d="M4.41932692,4.30152273 C4.37280769,4.30152273 4.32786538,4.278 4.30263462,4.23565909 L3.67028846,3.17086364 C3.63244231,3.10735227 3.65373077,3.02502273 3.71680769,2.98738636 C3.78067308,2.95053409 3.86425,2.97092045 3.90209615,3.03443182 L4.53523077,4.09922727 C4.57228846,4.16273864 4.55178846,4.24506818 4.48792308,4.28270455 C4.46663462,4.29525 4.44219231,4.30152273 4.41932692,4.30152273 L4.41932692,4.30152273 Z" id="Shape"></path>
                    <path d="M4.89240385,4.02238636 C4.84667308,4.02238636 4.80330769,3.99886364 4.77728846,3.95652273 L4.14415385,2.89251136 C4.10551923,2.82821591 4.12759615,2.74667045 4.19225,2.70903409 C4.25532692,2.67139773 4.33811538,2.69256818 4.37517308,2.75607955 L5.00909615,3.82009091 C5.04615385,3.88438636 5.02565385,3.96593182 4.961,4.00356818 C4.9405,4.01611364 4.91605769,4.02238636 4.89240385,4.02238636 L4.89240385,4.02238636 Z" id="Shape"></path>
                    <path d="M5.36626923,3.74403409 C5.32053846,3.74403409 5.27717308,3.71972727 5.25115385,3.67817045 L4.61801923,2.61415909 C4.57859615,2.54986364 4.60067308,2.46831818 4.66532692,2.43068182 C4.72919231,2.39226136 4.81119231,2.41421591 4.84825,2.47772727 L5.48217308,3.54173864 C5.52001923,3.60603409 5.49873077,3.68757955 5.43407692,3.72443182 C5.41357692,3.73776136 5.38992308,3.74403409 5.36626923,3.74403409 L5.36626923,3.74403409 Z" id="Shape"></path>
                    <path d="M5.82830769,3.44686364 C5.78257692,3.44686364 5.73763462,3.42334091 5.71240385,3.381 L5.09109615,2.33580682 C5.05403846,2.27151136 5.07453846,2.18918182 5.13919231,2.15232955 C5.20305769,2.11626136 5.28663462,2.13586364 5.32369231,2.199375 L5.94578846,3.24456818 C5.98284615,3.30886364 5.96234615,3.39119318 5.89769231,3.42804545 C5.87482692,3.43980682 5.85196154,3.44686364 5.82830769,3.44686364 L5.82830769,3.44686364 Z" id="Shape"></path>
                    <path d="M6.25565385,3.08775 C6.20913462,3.08775 6.16419231,3.06422727 6.13975,3.02267045 L5.56575,2.05823864 C5.52711538,1.99472727 5.54840385,1.91239773 5.61226923,1.87476136 C5.67692308,1.837125 5.75971154,1.85829545 5.79598077,1.92180682 L6.37076923,2.88623864 C6.40940385,2.95053409 6.38732692,3.03207955 6.32425,3.06971591 C6.30138462,3.08147727 6.27773077,3.08775 6.25565385,3.08775 L6.25565385,3.08775 Z" id="Shape"></path>
                    <path d="M6.70980769,2.77646591 C6.66328846,2.77646591 6.61755769,2.75294318 6.59311538,2.71060227 L6.03961538,1.77753409 C6.00176923,1.71323864 6.02305769,1.63090909 6.08692308,1.59405682 C6.15078846,1.55798864 6.23357692,1.57759091 6.27142308,1.64110227 L6.82571154,2.57417045 C6.86276923,2.63846591 6.84226923,2.72079545 6.77840385,2.75764773 C6.75553846,2.76940909 6.73188462,2.77646591 6.70980769,2.77646591 L6.70980769,2.77646591 Z" id="Shape"></path>
                    <path d="M7.14030769,2.42597727 C7.09457692,2.42597727 7.04963462,2.40245455 7.02519231,2.36089773 L6.51269231,1.49918182 C6.47405769,1.43567045 6.49534615,1.35334091 6.55921154,1.31570455 C6.62386538,1.27806818 6.70665385,1.29923864 6.74371154,1.36275 L7.25621154,2.22368182 C7.29405769,2.28719318 7.27276923,2.36952273 7.20890385,2.40715909 C7.18682692,2.41970455 7.16317308,2.42597727 7.14030769,2.42597727 L7.14030769,2.42597727 Z" id="Shape"></path>
                    <path d="M7.56292308,2.06451136 C7.51719231,2.06451136 7.47303846,2.04098864 7.44780769,1.99864773 L6.84857692,0.989522727 C6.81073077,0.925227273 6.83201923,0.842897727 6.89667308,0.806045455 C6.95975,0.769193182 7.04253846,0.789579545 7.08117308,0.853875 L7.67961538,1.863 C7.71667308,1.92729545 7.69617308,2.00884091 7.63151923,2.04647727 C7.61023077,2.05823864 7.58578846,2.06451136 7.56292308,2.06451136 L7.56292308,2.06451136 Z" id="Shape"></path>
                </g>
            </g>
            <rect id="Rectangle-108" fill="#000000" sketch:type="MSShapeGroup" x="32" y="16" width="21" height="3"></rect>
        </g>
    </g>
</svg>